<?xml version="1.0" encoding="UTF-8"?><svg id="a" xmlns="http://www.w3.org/2000/svg" viewBox="0 0 64.21 101.75"><defs><style>.b{fill:#F54B1B;}</style></defs><g><path class="b" d="M21.97,62.85c2.33,1.64,5.3,1.83,6.44,.87,.23-.19,.46-.36,.69-.53,1.27-.94,2.28-1.7,1.59-5.46-1.88-.74-3.58-1.94-4.86-3.5l-.77-.94,1.13-.44c.47-.18,.94-.37,1.41-.57l-4.21-7.33c-.52-.33-1.68-.91-2.39-.64-1.39,.53-5.18,2.76-6.01,3.48-.57,.49-.66,2.01,.2,3.6l6.78,11.45Z"/><path class="b" d="M35.84,29.74c.12,3.56,.24,7.24,.35,11.7,.9,1.76,1.95,3.94,2.62,5.34,1.74-.99,3.52-2.05,5.33-3.19l.58-.37,.5,.48c.79,.76,1.6,1.55,2.42,2.34-.6-5.34-1.19-10.18-1.76-14.87-.66-5.45-1.35-11.09-2.05-17.48-.33-3.04-.91-4.84-3.03-5.65-1.87-.71-3.28-.06-4.31,1.98-1.14,2.28-1.06,5.89-1.01,7.83,.11,4.54,.23,8.28,.36,11.89Z"/><path class="b" d="M12.74,69.97c1.06,.56,3.13,1.27,5.35,0,2.46-1.41,3.23-3.37,2.41-6.16l-6.81-11.5c-.16-.21-1.38-1.69-3.01-1.23-2.04,.58-3.63,2.14-4.91,3.58-.42,.47-.22,2.33,.65,3.94,.17,.32,.5,.95,.91,1.75,.71,1.38,2.08,4.04,3.28,6.22,.04,.06,.08,.13,.11,.2,.88,1.59,1.66,2.89,2.01,3.2Z"/><path class="b" d="M24.87,44l4.36,7.59c2.62-1.14,5.29-2.45,8.03-3.95-1.73-3.61-3.59-7.35-3.95-7.8-.88-1.02-1.72-1.34-2.64-1.01-.25,.09-.53,.19-.84,.3-1.5,.53-4.29,1.51-4.95,2.19-.5,.51-.32,1.43-.04,2.58l.03,.11Z"/><path class="b" d="M63.89,58.03c-.72-2.57-2.54-4.33-3.74-5.49-1.96-1.89-4.35-3.93-6.37-5.9l-.61-.6c-.68-6.12-1.35-11.6-2-16.91-.7-5.75-1.59-11.65-2.55-18.34-.51-3.55-.69-8.06-6.2-10.16-1.08-.41-2.17-.62-3.23-.62-3.17,0-5.42,1.87-7.06,5.14-1.55,3.09-1.69,6.94-1.6,10.64,.09,3.64,.2,7.73,.32,11.37,.1,3.14-.03,3.97-2.77,5.8-6.29,4.21-12.52,6.76-18.34,11.25-3.06,2.36-6.22,3.93-8.53,7.06-1.63,2.21-1.42,4.71-.49,7.07,1.22,3.1,2.48,5.73,3.79,8.8,2.28,5.38,4.34,11.79,7.17,16.92,3.44,6.24,13.31,5.99,19.59,5.99,7.54,0,12,.01,19.48-.73,2.75-.27,4.09-2.46,5.27-4.96,1.19-2.52,1.95-5.31,2.83-7.95,1.16-3.46,2.16-6.45,3.71-9.88,.86-1.9,2.29-5.07,1.33-8.51Zm-5.53,6.74c-1.41,3.12-2.33,6.24-3.31,9.55-.76,2.58-1.55,5.25-2.63,8.08l-.02,.05c-1.27,2.79-4.91,4.28-10.81,4.41-3.71,.08-7.1-.4-7.97-.53-2.36,.7-4.75,1.03-7.02,1.03-4.86,0-9.16-1.54-11.39-4.35-2.63-3.32-5.71-14.12-6.1-15.53-.85-1.54-1.94-3.6-3.34-6.32-.41-.79-.73-1.42-.89-1.72-.87-1.6-1.7-4.51-.42-5.94,1.45-1.63,3.27-3.4,5.74-4.1,1-.28,1.88-.16,2.62,.12-.09-1.26,.25-2.38,1.03-3.05,1.04-.89,5.07-3.23,6.53-3.79,.82-.31,1.71-.18,2.46,.08-.09-.91,.04-1.88,.78-2.65,.88-.91,3.07-1.72,5.63-2.62,.3-.11,.58-.2,.83-.29,1.07-.39,2.65-.47,4.27,1.19-.09-3.11-.18-5.88-.27-8.57-.12-3.62-.25-7.35-.36-11.9-.08-3.11,.02-6.32,1.2-8.66,1.43-2.84,3.8-3.87,6.51-2.84,3.25,1.24,3.85,4.32,4.15,7.1,.7,6.38,1.38,12.01,2.05,17.46,.65,5.32,1.32,10.82,2,17.02,.45,.44,.9,.88,1.35,1.32,1.92,1.86,3.9,3.79,5.75,5.58,1.02,.98,2.28,2.2,2.74,3.86,.57,2.04-.2,4.02-1.11,6.03Z"/><path class="b" d="M55.51,56.14c-1.86-1.79-3.84-3.72-5.76-5.59-1.75-1.7-3.55-3.45-5.26-5.1-5.78,3.6-11.18,6.41-16.46,8.56,1.73,1.64,4.07,2.65,6.45,2.77,2.56,.13,6.25-.69,8.33-2.77l.86-.86,.55,1.09c.32,.63,.61,1.28,.89,1.92,.27,.61,.55,1.25,.85,1.84l.52,1.03-1.13,.23c-4.28,.88-8.17,3.65-10.39,7.41-2.17,3.69-2.45,7.12-1.08,13.59,.1,.48-.2,.94-.68,1.04-.48,.1-.94-.2-1.04-.68-1.46-6.88-1.12-10.77,1.28-14.85,2.28-3.87,6.14-6.79,10.47-7.99-.14-.31-.28-.61-.41-.92-.12-.27-.24-.54-.36-.82-2.5,1.88-6.06,2.61-8.74,2.48-.62-.03-1.23-.11-1.83-.24,.5,3.78-.75,5.06-2.41,6.3-.21,.16-.42,.31-.61,.47-1.58,1.31-4.44,1.3-7,.13,.2,2.66-1.01,4.82-3.58,6.29-1.22,.7-2.41,.94-3.47,.94-1.38,0-2.54-.41-3.27-.75,1.19,3.66,2.9,8.38,4.37,10.23,2.87,3.62,9.9,4.74,16.72,2.67l.2-.06,.2,.03c4.07,.69,15.07,1.51,17.08-2.81,1.04-2.76,1.82-5.39,2.57-7.93,1-3.36,1.94-6.54,3.4-9.77,.77-1.71,1.43-3.36,1.02-4.84-.33-1.2-1.36-2.19-2.27-3.06Z"/></g><path class="b" d="M31.27,91.6c-.95,0-1.99,0-3.08,0v10.16h13.8v-10.27c-3.32,.12-6.55,.12-10.72,.12Z"/></svg>