<?xml version="1.0" encoding="UTF-8"?><svg id="a" xmlns="http://www.w3.org/2000/svg" viewBox="0 0 80.06 59.19"><defs><style>.b{fill:#F54B1B;}</style></defs><path class="b" d="M46.28,42.32c-.07-.48-.43-.84-.87-.94-.28-1.33-.58-2.5-.78-3.22-.75-2.7-2.87-9.43-6.36-13.46-4.23-4.9-8.76-6.07-14-7.42-.89-.23-1.79-.46-2.73-.72,2.38-5.08,5.63-8.92,12.65-12.83,7.54-4.2,18.57-5.42,28.59-.71,11.29,5.3,16.63,13.77,17.26,25.44,.3,5.7-1.46,11.73-4.05,16.81-1.3,2.54-2.93,4.91-4.87,7-.21,.22-.53,.59-.93,1.02,0,0,0,0,0,0-.68,.78-1.5,1.55-1.98,1.98,0,0,0,0,0,0-.14,.12-.27,.24-.41,.35h0c-.97,.8-1.93,1.36-2.58,1.12-.59-.22-.97-.77-1.31-1.29-2.3-3.5-6.2-3.76-10.06-2.02-2.21,1-4.23,2.41-6.55,3.12-3.54,1.09-7.57,.31-10.52-1.92,.49-.12,.99-.25,1.49-.4,.91-.27,1.98-.59,3.06-1.12,1.55,.35,3.22,.35,4.84-.06,1.67-.42,2.92-1.22,4.24-2.07,.59-.38,1.21-.77,1.87-1.13,2.64-1.44,5.82-1.8,8.71-.99,2.11,.59,4.48,2.82,6.19,4.98,.01,.01,.58,.74,1.05,.3,.43-.41,.07-1-.09-1.21-.02-.03-.04-.05-.06-.08h0c-1.8-2.22-4.31-4.58-6.72-5.25-3.22-.9-6.76-.5-9.7,1.1-.7,.38-1.33,.79-1.95,1.18-1.23,.79-2.39,1.53-3.85,1.9-.91,.23-1.84,.31-2.75,.26,.76-.57,1.49-1.3,2.14-2.24,.68-.92,.92-2.46,.75-4.66,.39-.22,.62-.66,.55-1.13l-.24-1.7Z"/><g><path class="b" d="M32.81,43.15c.2-1.1,.48-2.21,.77-3.33,.01-.01,.03-.02,.04-.03,.03,.88,.07,1.76,.14,2.64-.24,.18-.47,.36-.72,.55-.08,.06-.16,.11-.24,.17Z"/><path class="b" d="M32.59,44.6c.4-.23,.78-.48,1.13-.76,.06-.04,.11-.09,.17-.13,.23,1.84,.64,3.6,1.42,5.08,.27,.52,.6,.99,.99,1.43-.92,.25-1.83,.45-2.74,.6-1.03-2.02-1.2-4.1-.96-6.22Z"/></g><g><path class="b" d="M40.41,42.72c.71-.1,1.36,.39,1.46,1.09,.1,.71-.39,1.36-1.09,1.46-.71,.1-1.36-.39-1.46-1.09-.1-.71,.39-1.36,1.09-1.46Z"/><g><path class="b" d="M37.71,49.81c-.5-.48-.92-1.03-1.24-1.64-.79-1.51-1.17-3.4-1.36-5.39,.29-.21,.57-.42,.85-.62,1.46-1.06,2.85-2.08,4.23-3.47,.05,.16,.09,.31,.13,.47,.29,1.02,.51,1.94,.69,2.78l-1.69,.24c-.61,.09-1.04,.66-.95,1.27l.24,1.7c.09,.61,.66,1.04,1.27,.95l1.71-.25c.05,.76,.03,1.25-.02,1.47-1.03,1.47-2.31,2-3.88,2.48Z"/><path class="b" d="M35.91,28.88c.91,1.34,1.8,3.07,2.62,5.06-1.18,1.51-2.34,2.54-3.65,3.54-.05-.78-.15-1.91-.19-2.59,.17-1.72-.07-3.39-.71-4.88,.53-.39,1.16-.76,1.94-1.14Z"/><path class="b" d="M32.85,25.54c-.59,.34-1.11,.69-1.58,1.04-.36-.27-.74-.51-1.15-.74-3.24-1.75-7.26-2.78-10.82-3.63,.19-.53,.37-1.05,.56-1.55,1.18,.33,2.29,.62,3.32,.88,3.96,1.02,6.96,1.79,9.69,4Z"/></g></g><path class="b" d="M.23,54.56c.32,.78,.93,1.38,1.71,1.7,5.38,2.14,9.71,2.94,12.94,2.94,2.51,0,4.36-.49,5.52-1.21,1.72-1.07,2.95-2.4,3.87-3.92,1.63,.25,3.29,.4,5,.4,2.76,0,5.64-.38,8.67-1.28,2.02-.6,4.53-1.35,6.38-4.02,1.49-2-.21-8.7-.77-10.71-.73-2.63-2.79-9.17-6.13-13.04-4.01-4.64-8.17-5.71-13.44-7.07-1.73-.44-3.51-.9-5.5-1.53l-.67,2.1c2.04,.65,3.94,1.14,5.62,1.57,4.61,1.19,8.06,2.07,11.32,5.3-5.57,2.73-6.19,5.35-7.81,12.18-.33,1.41-.71,2.99-1.18,4.81-1.32-.04-2.8-.22-4.42-.56-4.79-.99-7.81-2.09-11.87-3.66-1.54-.59-3.27,.12-3.94,1.63L.27,52.14c-.34,.77-.35,1.63-.03,2.42Zm24.96-9.63c-.02,.07-.04,.14-.05,.21-.63,2.45-1.18,4.63-2.06,6.49-4.41-.89-8.64-2.6-12.98-4.36-1.47-.6-2.99-1.2-4.51-1.78l1.95-4.43c.19-.43,.69-.64,1.13-.47,4.03,1.55,7.27,2.73,12.22,3.76,1.55,.32,2.98,.51,4.31,.58Zm14.59-10.83c-1.84,2.51-3.59,3.8-5.77,5.39-.74,.54-1.51,1.1-2.33,1.75-.93,.73-2.14,1.19-3.62,1.4,.4-1.56,.72-2.94,1.02-4.19,1.65-6.93,2.05-8.62,7.19-10.97,1.23,1.62,2.45,3.93,3.52,6.61Zm-14.46,17.91c.82-1.91,1.36-4.05,1.95-6.33,.07-.26,.13-.52,.2-.78,2.29-.17,4.15-.82,5.57-1.93,.8-.63,1.55-1.18,2.27-1.71,1.92-1.4,3.63-2.66,5.36-4.73,.25,.76,.49,1.53,.72,2.32,1.49,5.28,1.5,8.47,1.18,9l-.03,.04c-1.41,2.05-3.26,2.6-5.22,3.18-4.29,1.28-8.22,1.43-11.99,.93Zm-23.05,1.02l2.42-5.52c1.54,.58,3.08,1.2,4.57,1.81,4.09,1.65,8.25,3.33,12.65,4.31-.7,.96-1.57,1.8-2.68,2.49-1.69,1.05-7.06,1.83-16.48-1.91-.22-.09-.4-.26-.49-.48-.09-.23-.09-.48,0-.7Z"/></svg>