 <svg viewBox="0 0 29 28" xmlns="http://www.w3.org/2000/svg">
    <path d="M23.991 6.526c0 .927-.779 1.679-1.74 1.679-.96 0-1.74-.752-1.74-1.68 0-.927.78-1.679 1.74-1.679.961 0 1.74.752 1.74 1.68Zm4.935 1.706c.068 1.493.074 1.97.074 5.77 0 3.802-.017 4.278-.085 5.771-.068 1.488-.317 2.506-.674 3.397-.754 1.882-2.295 3.37-4.244 4.097-.918.345-1.978.585-3.519.651-1.547.066-2.04.082-5.978.082-3.938 0-4.431-.016-5.978-.082-1.541-.066-2.595-.306-3.519-.65a7.168 7.168 0 0 1-2.567-1.614A6.887 6.887 0 0 1 .76 23.17c-.357-.886-.606-1.909-.674-3.397C.017 18.28 0 17.804 0 14.003 0 10.2.017 9.725.09 8.227.16 6.739.409 5.722.766 4.83a6.875 6.875 0 0 1 1.671-2.478A7.107 7.107 0 0 1 5.01.732C5.927.389 6.987.149 8.528.083 10.075.016 10.568 0 14.506 0c3.938 0 4.43.016 5.983.088 1.541.065 2.595.306 3.519.65a7.18 7.18 0 0 1 2.567 1.614 6.815 6.815 0 0 1 1.677 2.483c.357.887.606 1.91.674 3.397Zm-2.612 11.432c.068-1.477.085-1.914.085-5.65 0-3.736-.017-4.18-.085-5.656-.062-1.362-.3-2.106-.498-2.598a4.34 4.34 0 0 0-1.083-1.608 4.48 4.48 0 0 0-1.666-1.045c-.51-.192-1.274-.421-2.691-.481-1.524-.066-1.983-.083-5.86-.083-3.869 0-4.328.017-5.858.083-1.41.06-2.181.29-2.691.48A4.522 4.522 0 0 0 4.3 4.153 4.245 4.245 0 0 0 3.213 5.76c-.199.492-.437 1.23-.499 2.598-.068 1.471-.085 1.92-.085 5.656 0 3.736.017 4.179.085 5.656.062 1.361.3 2.105.499 2.598a4.33 4.33 0 0 0 1.082 1.608c.465.465 1.037.82 1.666 1.045.51.191 1.275.42 2.691.48 1.525.067 1.99.083 5.86.083s4.328-.016 5.858-.082c1.411-.06 2.182-.29 2.692-.481a4.732 4.732 0 0 0 2.754-2.659c.198-.492.436-1.23.498-2.598ZM14.506 6.81c4.113 0 7.45 3.222 7.45 7.193 0 3.971-3.337 7.193-7.45 7.193-4.114 0-7.451-3.222-7.451-7.193 0-3.971 3.337-7.193 7.45-7.193Zm0 11.859c2.668 0 4.833-2.09 4.833-4.666 0-2.577-2.165-4.666-4.833-4.666-2.669 0-4.834 2.09-4.834 4.666 0 2.576 2.165 4.666 4.834 4.666Z" />
  </svg>