<svg viewBox="0 0 16 17" fill="none" xmlns="http://www.w3.org/2000/svg"><path d="M15.762 3.79114C15.2054 4.03781 14.6074 4.20447 13.9787 4.27981C14.62 3.89581 15.112 3.28647 15.344 2.56114C14.744 2.91714 14.0794 3.17581 13.372 3.31447C12.8054 2.71181 11.9987 2.33447 11.1054 2.33447C9.3907 2.33447 8.00003 3.72514 8.00003 5.44114C8.00003 5.68381 8.02803 5.91981 8.08003 6.14781C5.49803 6.01781 3.2107 4.78114 1.67869 2.90247C1.41203 3.36247 1.25869 3.89581 1.25869 4.46381C1.25869 5.54114 1.80736 6.49247 2.64003 7.04914C2.13069 7.03247 1.65203 6.89314 1.23336 6.66047V6.70047C1.23336 8.20514 2.30336 9.46047 3.7247 9.74581C3.46336 9.81647 3.18936 9.85381 2.9067 9.85381C2.7067 9.85381 2.51136 9.83514 2.32203 9.79914C2.71736 11.0325 3.86403 11.9311 5.22336 11.9551C4.16003 12.7885 2.82069 13.2851 1.36603 13.2851C1.11536 13.2851 0.868028 13.2705 0.624695 13.2418C1.99936 14.1238 3.63136 14.6371 5.3847 14.6371C11.098 14.6371 14.2214 9.90514 14.2214 5.80114C14.2214 5.66781 14.218 5.53314 14.212 5.39981C14.8187 4.96114 15.3454 4.41514 15.7607 3.79314L15.762 3.79114Z" fill="currentColor"></path></svg>