<?xml version="1.0" encoding="UTF-8"?><svg id="a" xmlns="http://www.w3.org/2000/svg" viewBox="0 0 71.81 41.58"><defs><style>.b{fill:#F54B1B;}</style></defs><path class="b" d="M5.83,0V4.68c0,.3-.25,.55-.55,.55s-.55-.25-.55-.55V0H2.07C.92,0,0,.92,0,2.07v3.91H23.15V0H5.83Z"/><g><path class="b" d="M62.68,14.64c-.57-1.15-.98-2.09-1.56-3.08-1.02-1.95-2.05-3.86-3.37-5.31-3.71-4.08-10.14-6.26-15.07-6.26h-8.79V5.97h12.52c5.41,0,10.26,2.42,13.54,6.22,.59,.85,1.2,1.83,1.74,2.93,2.63,5.33,2.63,10.76,0,16.16-.68,1.41-1.77,2.81-3.2,4.15,2.71-3.12,4.24-7.25,4.33-11.58,0-8.98-7.44-16.29-16.42-16.29h-12.8c-.66,1.3-2.29,3.11-5.1,3.11s-4.43-1.81-5.1-3.11H0v6.34c0,1.17,.75,2.21,1.87,2.56,4.84,1.55,17.35,5.47,24.51,9.04,1.37,.69,2.13,2.02,2.79,3.41,2.32,4.91,5.05,8.26,8.6,10.16,2.29,1.44,5.54,2.49,9.02,2.49,2.66,0,5.41-.56,7.86-1.89h.02c3.94-2.43,6.64-5.09,8.02-7.92,3.46-7.12,1.91-13.24,0-17.12Zm-16.68-1.27c5.99,0,10.85,4.74,10.85,10.58s-4.86,10.58-10.85,10.58-10.85-4.74-10.85-10.58,4.86-10.58,10.85-10.58Z"/><path class="b" d="M66.67,17.71c-1.08,0-2.09,.34-2.92,.91,.25,.82,.46,1.76,.59,2.83,.48-.79,1.34-1.32,2.33-1.32,1.5,0,2.73,1.22,2.73,2.73s-1.22,2.73-2.73,2.73c-.91,0-1.71-.45-2.2-1.13-.03,1.04-.14,2-.31,2.89,.75,.42,1.6,.66,2.52,.66,2.84,0,5.15-2.31,5.15-5.15s-2.31-5.15-5.15-5.15Z"/><path class="b" d="M24.74,6.62c.21,.49,1.22,2.46,3.78,2.46s3.56-1.96,3.78-2.46V1.26c-.66,.82-1.81,1.75-3.69,1.75-2.06,0-3.25-1.12-3.87-1.99V6.62Z"/></g></svg>