<svg xmlns="http://www.w3.org/2000/svg" xmlns:xlink="http://www.w3.org/1999/xlink" width="700.165" height="513.221" viewBox="0 0 700.165 513.221">
  <defs>
    <clipPath id="clip-path">
      <rect id="Rectangle_128" data-name="Rectangle 128" width="275.085" height="643.95" fill="#fff"/>
    </clipPath>
  </defs>
  <g id="Group_222" data-name="Group 222" transform="matrix(0.407, -0.914, 0.914, 0.407, 0, 251.303)">
    <g id="Group_133" data-name="Group 133" clip-path="url(#clip-path)">
      <path id="Path_2235" data-name="Path 2235" d="M28.606,71.273c.558,1.964-1.778,1.034-2.113,2.113-4.293,17.767-10.567,38.949-8.441,59.64-5.819,1.534-12.142.1-17.944-1.055C-.786,108.4,4,85.065,10.136,65.471c4.83-.062,12.75,3.5,18.47,5.8m-8.97,16.361c.653-6.617-3.594-12-5.806-17.415,1.77,7.138,2.978,11.621,5.806,17.415M18.577,94.49c.393-8.867-4.859-16.621-7.39-22.688.831,7.113,4.049,16.34,7.39,22.688m3.168-12.663c1.352-3.78-2.738-5.823-4.218-8.441,1.356,2.862,2.035,6.4,4.218,8.441m-4.218,19c-.3-8.507-5.624-16.054-7.92-24.28.19,8.548,5.025,16.708,7.92,24.28m-1.059,8.449c-.67-9.007-3.759-15.6-6.861-22.167-.112.633-.587.323-1.055,0,2.986,7.035,4.417,15.633,7.916,22.167M8.552,93.44c-.509-1.6-.624-3.6-2.113-4.218.616,1.489.732,3.49,2.113,4.218m6.861,27.444a21.892,21.892,0,0,1,.525-6.332c-1.439-.05-1.063.881-2.109,0-2.655-6.849-3.9-15.1-8.445-20.062,2.878,9.251,7.1,18.817,10.029,26.394M5.385,103.994c.116-.409.438-.612,1.055-.525A9.859,9.859,0,0,0,4.855,100.3c-.72.711-1,3.685.529,3.693m8.97,22.171c-.815-4.835-5.07-15.318-9.5-20.058-.116.405-.438.612-1.055.529v2.109c4.45,2.845,7.353,11.588,10.554,17.419m-2.634-1.059c-.782-2.051-2.134-6.294-3.7-5.806,1.381,1.791,1.53,4.806,3.7,5.806m-4.752,2.109c-1.663-1.683-2.035-4.648-3.693-6.332.38,2.618,2.275,6.5,3.693,6.332m-2.113,3.172c.2-1.791-.914-2.258-1.58-3.172-.025,1.609-.31,3.478,1.58,3.172" transform="translate(0 205.289)" fill="#fff" fill-rule="evenodd"/>
      <path id="Path_2236" data-name="Path 2236" d="M19.281,89.088c2.171,3.445,1.39,8.222,1.584,12.138.86,17.291,6.146,33.685,11.609,46.451-2.494,5.947-11.468,5.418-17.415,7.911C7.991,135.762,1.634,111.937.282,89.617c.612.091.939-.112,1.055-.529,4.429-.091,10.74.3,17.944,0M7.143,98.062c-1.117-.463-1.563-1.6-3.168-1.584.1,1.534,2.787,3.5,3.168,1.584m-.529,1.059c3.586,7.146,11.762,10.079,13.2,17.944.91-9.322-8.321-14.549-13.2-17.944M15.588,94.9c-.165-1.77-1.766-2.105-3.168-2.639A4.222,4.222,0,0,0,15.588,94.9m1.58,9.5C14.426,99.22,9.554,93.364,3.446,93.314c5.538.8,7.779,8.974,13.722,11.083M14,97.537c1.009.227,1.328,1.137,2.643,1.055.165-1.646-2.444-2.82-2.643-1.055m2.643,16.356c-2.345-5.215-8.528-6.6-10.029-12.667H5.03c2.01,6.088,6.617,9.57,11.613,12.667m2.109,11.083c-4.409-1.836-7.957-9.851-11.609-8.97,4.839,4.835,9.822,9.529,15.831,13.2-2.94-9.375-9.487-15.145-16.361-20.587,1.807,7.361,11.241,9.847,12.138,16.361m5.277,10.033c.12-1.7-.935-2.237-.525-4.227-6.174.281-9.793-9.136-15.306-9.5,5.538,4.318,10.219,9.479,15.831,13.726m-6.861-1.58c2.845,2.1,5.881,5.749,7.916,5.273-1.894-2.63-4.917-4.289-7.386-6.336-2.593-2.142-5-4.541-7.916-6.327.1,3.643,4.7,5.405,7.386,7.39M27.2,145.039c-4.516-5.691-10.645-9.764-16.89-13.722,4.045,6.158,11.489,8.916,16.89,13.722m-2.113.529c-4.384-2.3-7.419-5.947-12.134-7.92,2.543,3.788,8.317,7.155,12.134,7.92m1.059,3.164c-3.883-1.749-7.122-4.14-11.083-5.806,2.448,2.837,7.767,5.591,11.083,5.806m3.693-.533c.244-1.646-1.125-1.679-2.639-1.58-.24,1.65,1.129,1.691,2.639,1.58m-7.916,1.584a14.354,14.354,0,0,0-5.806-2.634c-.988,4.413,6.261,2.589,5.806,2.634" transform="translate(0.884 279.302)" fill="#fff" fill-rule="evenodd"/>
      <path id="Path_2237" data-name="Path 2237" d="M107.672,2.111c-1.311,5.695,3.863,9.045,5.277,13.726-2.916,4.351-8.838,5.347-13.193,7.386-13.437,6.3-26.729,14.338-40.111,21.112-2.1-6.174-8.325-8.213-7.92-16.89A438.164,438.164,0,0,1,103.454,0c2.208-.1,1.629,2.589,4.218,2.109M94.479,16.892A47.306,47.306,0,0,1,91.312,22.7c4.665.265,3.689-5.112,5.277-7.92-.62-.083-1.5.091-1.58-.529,1.663-2.911,5.546-6.4,5.277-9.5C97.2,6.942,92.813,15.105,94.479,16.892m5.806-6.332c1.667-.463,3.284-3.73,2.639-4.752-.918,1.543-1.663,3.267-2.639,4.752m-7.92,1.58c.583-1.882,2.246-2.68,2.643-4.748H93.425c.554,2.167-2.485,3.457-1.059,4.748m5.806,7.39c1.547.136,1.621-1.2,3.168-1.055-.794-2.477,1.766-5.389-1.055-5.277-.269,2.539-2.386,3.246-2.113,6.332M85.509,25.866c3.933-1.348,4.926-8.437,5.8-11.088-1.886,3.8-5.476,7.328-5.8,11.088m17.944-7.39c2.713-.281,3.892-2.279,1.58-3.7-.136,1.621-1.141,2.374-1.58,3.7M73.9,33.252c4.744-3.172,7.142-11.5,8.445-16.361A140.968,140.968,0,0,0,73.9,33.252m5.277-4.222c4.094-.194,5.819-8.168,5.277-9.5-1.758,3.168-3.581,6.27-5.277,9.5M68.619,36.42c2.862-.819,3.875-4.88,5.277-7.92,1.39-3.011,4-6.646,3.164-8.445-2.978,5.289-5.715,10.827-8.441,16.365M67.031,26.391A32.338,32.338,0,0,0,70.2,21.114c-2.506-.025-3.871,3.85-3.172,5.277M59.116,37.475c2.3-1.762,5.025-8.089,3.693-10.029-1.071,3.5-2.572,6.576-3.693,10.029M60.7,40.643c1.547.136,1.621-1.2,3.168-1.055C62.188,35.7,67.846,32.5,66.506,29.03A34.874,34.874,0,0,0,60.7,40.643m5.806-5.281c1.443-1.208,3.639-4.429,2.639-6.332a41.027,41.027,0,0,0-2.639,6.332" transform="translate(162.132 -0.002)" fill="#fff" fill-rule="evenodd"/>
      <path id="Path_2238" data-name="Path 2238" d="M94.847,25.222c-4.475,5.583-10.918,9.417-16.886,13.726C72.068,43.2,65.327,46.661,60.542,52.141c-1.1-.223-1.4.364-2.109.529-4.293,3.8-9.322,6.869-13.722,10.554-4.107-5.041-8.887-9.409-12.142-15.3C47.581,33.374,65.2,21.438,84.293,10.975c3.925,4.347,5.351,11.187,10.554,14.247m-19.528-1.58c2.105,3.751-3.49,8.772-4.218,13.193,5.438-1.241,3.962-9.409,6.861-13.193-.62-.083-1.5.087-1.584-.529.74-2.246,2.337-3.639,3.164-5.806-3.871-.352-3.234,3.809-4.222,6.336M80.6,22.588c.087-1.356,2.237-3.342,1.055-4.222-.517.926-2.415,3.168-1.055,4.222m-7.916,1.055c-.467-1.741,2.581-2.639,1.055-3.7-.976.3-2.634,2.589-1.055,3.7m8.97,7.39c3.354.633,1.882-3.652,1.055-4.752-.831,1.1-.364,3.5-1.055,4.752m-19,1.055c-.066-.4,1.691-4.028,1.055-4.752-.79.707-3.23,4.491-1.055,4.752m7.916-4.222c.289.765-.616,2.725.529,2.639.261-.678,1.332-3.155.525-3.168-.116.414-.443.616-1.055.529M61.6,44.755c2.9-2.949,5.529-11.658,4.752-14.781-1.3,4.859-4.727,10.4-4.752,14.781m-4.748-9.5a5.694,5.694,0,0,1,2.639-3.693c-2.026-.244-3.734,2.56-2.639,3.693m9.5,5.273c3.16-.715,4.012-6.534,3.693-8.966a16.044,16.044,0,0,0-3.693,8.966M55.265,48.977c1.894.132,1.931-1.584,3.693-1.584-.513-5.972,4.562-9.16,3.168-14.251-2.994,4.57-4.607,10.521-6.861,15.835m-9.5,3.693c-.6,2.084-1.232,4.781-.529,6.332,4.777-5.4,6.443-16.228,7.916-23.222h-1.58c-1.667,5.227-4.227,11.381-5.806,16.89m4.218,2.113c3.114-.6,3.354-4.715,4.227-7.39a86.046,86.046,0,0,0,2.639-8.974c-.116-.409-.017-1.038-.529-1.055-2.055,5.864-4.727,11.1-6.336,17.419m-5.8-1.584c.19-5.141,5.1-11.021,3.168-14.781C46.2,42.9,43.479,48.622,44.182,53.2" transform="translate(102.124 34.414)" fill="#fff" fill-rule="evenodd"/>
      <path id="Path_2239" data-name="Path 2239" d="M73.126,39.553c-.414,3.284-3.788,3.6-5.806,5.277-14.806,12.254-26.646,28-38,43.8A68.53,68.53,0,0,1,15.595,78.08c1.05-7.221,5.724-10.819,10.029-14.777,8.974-14.954,22-25.86,33.78-38.006,2.622-.335,2.965,1.609,5.277,1.584,1.65,5.393,6.675,7.4,8.445,12.672M59.4,44.3c1.456-1.973,3.193-9,1.58-10.554-.914,3.127-.4,7.688-1.58,10.554m-4.752-3.693c-1.216-.194-.5-2.312-2.113-2.113-1.079,5.959-3.49,13.4-2.634,19.533,2.084-3.9.562-14.214,4.748-14.256-.471,3.23-1.807,5.587-1.584,9.5,2.907-2.9,2.911-11.509,2.643-15.831-1.042.368.128,2.945-1.059,3.168m10.554,2.109c1.758.649,1.29-3.565.529-3.693-.728.678-.525,2.3-.529,3.693m-19,11.083c.091-.786-.19-1.948.529-2.109C46.207,56.207,44.3,58.92,45.682,63.3,47.8,57.4,50.64,44.594,48.316,42.187,47.03,45.128,45.1,50.219,46.207,53.8m-4.222-6.861c2.593,4.926-2.3,14.206,0,20.583.277-5.988,3.71-17.543,1.584-22.692-.157,1.075-1.427,1.034-1.584,2.109m14.777,3.693c1.683.583,1.683-4.8,0-4.222.186,1.9.811,2.543,0,4.222M38.291,62.245c-.571,2.262-2.663,7.345-.529,10.554,2.585-3.445.926-10.943,2.639-16.356-4.256-.323,1.03-5.418-1.055-6.861-2.179,2.717-2.361,9.231-1.055,12.663m-6.336-2.639c3.9.5,1.15,9.942,0,12.138,1.27,1.2.422,4.5,2.113,5.277,1.39-4.5,1.737-15.31,1.055-21.638-.852,1.609-2.651,2.279-3.168,4.222M26.678,73.333c-.289-.769.616-2.73-.525-2.643-1.013,4.375-.43,7.353-1.059,11.613,1.625-.393,1.017,1.447,2.639,1.055a101.336,101.336,0,0,1,3.168-22.7c-4.967,1.7-1.121,9.024-4.222,12.672m-2.109,0c-.678-2.035,2.126-5.2-.529-5.811.335,1.778-.682,4.9.529,5.811m5.806,9.5A37.714,37.714,0,0,0,30.9,68.577c-.124,5.343-1.584,10.5-.525,14.256M23.515,79.66c-1.873-1.642.294-7.328-2.643-7.916,0,3.184.782,8.354,2.643,7.916" transform="translate(48.9 79.202)" fill="#fff" fill-rule="evenodd"/>
      <path id="Path_2240" data-name="Path 2240" d="M47.247,53.4C37.6,72.619,27.793,89.273,21.383,110.927c-7.241-1.2-13.97-2.911-16.89-8.441C13.136,81.928,19.315,58.9,33.521,43.9c4.814,2.932,10.1,5.389,13.726,9.5M34.576,71.874c1.538-5.306-2.866-11.708-2.639-19-.674-.029-.732-.678-1.584-.529.893,7.026,1.613,14.227,4.222,19.528m2.639-5.8c-1.257-4.02-1.067-9.487-3.164-12.672.782,4.5.513,10.045,3.164,12.672M30.353,78.206c-1.658.223-1.154-4.425-2.639-2.634,1.625,1.72.368,6.319,1.584,8.445,5.058-7.614,2.44-17.667-1.055-26.919.385,8.015,2.076,15.389,2.109,21.108m9.5-16.89c.281-1.865-.447-2.717-1.584-3.164-.021,1.6-.306,3.474,1.584,3.164M28.244,73.988a24.679,24.679,0,0,0-2.109-10.558c.318,4.169.786,8.875,2.109,10.558m-1.055,15.3c1.282-6.935-1.055-17.432-3.7-23.747-.84,6.559,2.117,17.605,3.7,23.747M20.854,77.681c-.364-3.069.314-3.921,1.059-4.748-.459-.8-.79.141-2.113-.529.074,2.035-.414,4.632,1.055,5.277m3.7,16.886c2.419-5.405-1.381-12.312-2.113-17.944-.806,5.662.5,13.031,2.113,17.944m-2.113,5.811c-.562-1.973,1.311-1.505,1.055-3.168-2.982-4.053-2.2-11.861-4.748-16.365a51.265,51.265,0,0,0,3.693,19.533m-10.558-9.5c3.019,4.545,2.444,15.5,7.92,15.831-3.114-6.183-4.342-12.734-6.861-18.474-.538.695-.517,1.948-1.059,2.643m8.449,12.134c-1.427-4.2-1.216-12.854-4.222-13.722,2.055,3.577,2.151,11.923,4.222,13.722m-5.806,2.643C13.376,101.7,12.744,97.23,10.3,94.567c-.782,4.007.835,9.553,4.222,11.088" transform="translate(14.088 137.657)" fill="#fff" fill-rule="evenodd"/>
      <path id="Path_2241" data-name="Path 2241" d="M6.535,118.357c4.14.136,11.518-8.809,15.835-7.92,3.453.715,7.465,13.834,9.5,17.415,6.6,11.646,13.945,21.121,22.7,31.671,1.609,1.944,5.31,5.757,4.752,8.445-.3,1.456-3.127,1.9-5.277,4.227-1.551,1.671-6.613,5.215-9.5,4.214-2.3-.794-6.518-7.911-8.974-11.088C24.252,150.731,12.7,136.028,6.535,118.357m13.193,5.806c2.208-1.311,3.16,1.762,5.277,0a61.153,61.153,0,0,0-13.193-5.277c.984,3.416,6.8,1.993,7.916,5.277m-5.8-1.059A124.4,124.4,0,0,0,28.7,129.974c-2.895-3.652-12.461-6.15-14.777-6.869m16.886,10.554a5.26,5.26,0,0,0-1.58-3.164c-5.98.521-11.05-4.437-16.89-5.811,4.107,5.426,11.973,7.361,18.47,8.974m-6.861,2.113a39.521,39.521,0,0,0,11.613,3.164c-1.232-.877-1.873-2.349-2.639-3.693-5.815,2.163-11.878-3.726-17.419-5.269.947,2.527,5.393,4.5,8.445,5.8M22.9,136.831c4.268,2.895-.988-2.138-2.639-.529,1.245.773.98,1.112,2.639.529M25,138.936c5.467.351,8.768,5.666,13.722,4.756-1.328-.964-1.5-3.073-3.164-3.7.1,1.154-.434,1.679-1.584,1.584-2.548-.86-7.072-4.562-8.974-2.643m2.113,4.227c1.9.186,2,.769,3.693,1.584-.066-.029.12-1.249.529-1.055,1.679.786,2.184,2.911,4.752,4.223,1.547.782,4.562.658,6.332,2.1-4.326-6.753-16.7-8.275-23.226-11.083,2.754,1.588,4.934,3.929,7.92,4.227m.529,3.168c-1.084-.7-3.288-3.015-4.752-1.584,1.584.2,3.95,2.349,4.752,1.584m17.94,7.916c-2.808-3.172-8.085-3.875-12.134-5.806,3.242,2.386,8.2,5.864,12.134,5.806m-7.916,1.063c.794.248,1.882-.633,2.113-.538,3.9,1.621,8.478,3.416,11.083,6.865-2.1.339-2.122-1.4-4.222-1.059,1.336,1.431,3.672,3.036,5.806,2.113-.385,2.721,1.8,3.573,4.222,4.743-2.064-3.739-5.385-6.224-7.39-10.025-7.713.087-14.706-7.758-22.167-7.92,3.825,1.228,6.758,4.6,10.554,5.819m8.445,4.739c-5.306-2.432-11.137-4.338-16.361-6.861,3.834,3.561,11.514,6.075,16.361,6.861m-12.138,0c6.15.542,10.769,5.418,16.89,4.222-6.208-1.708-11.245-4.591-17.415-6.336-.116,1,.591,1.17.525,2.113m4.222,5.273c1.311.083,2.56.112,2.639-1.05-.926.149-2.634-1.485-3.168,0,.414.12.616.447.529,1.05m5.806,3.7c.058,1.882,1.745,2.13,3.693,2.113-.455-1.443-2.742-2.8-3.693-2.113" transform="translate(20.491 346.095)" fill="#fff" fill-rule="evenodd"/>
      <path id="Path_2242" data-name="Path 2242" d="M81.519,174.907c-3.226,5.219-5.732,11.154-12.138,13.2-10.666-8.9-25.43-20.5-37.473-32.2-3.548-3.445-10.289-9.078-10.554-12.667-.492-6.65,8.383-7.568,10.554-13.2h1.055c5.715,2.986,10.335,9.537,15.835,14.781,3.362,3.205,7,6.592,10.554,10.025,6.84,6.6,14.855,13.189,22.167,20.058m-49.086-33.78c3.271-.612,6.443,1.634,8.974,0-1.873-.777-7.126-.943-8.974,0m-5.277,2.113c-4.52-1.77-3.524,1.795,0,0m17.419,1.584c-2.746-1.836-9.921-2.043-13.2-1.584,2.61,1.675,10.277,3.705,13.2,1.584m4.222,4.748c-5.587-2.151-15.07-3.226-21.642-2.647,6.53,2.39,14.549,1.9,21.642,2.647m5.277,3.172c-5.645-2.568-15.12-1.385-23.222-2.643a42.321,42.321,0,0,0,23.222,2.643m-6.861,3.164c2.738-.782,6.625,2.25,7.39,0-1-.96-8.118-.765-7.39,0m14.251,3.7c-3.036-.98-10.844-.918-14.777-.534,4.533.339,12.986,2.349,14.777.534m4.218,4.222c-4.673-1.687-14.814-2.866-21.638-2.109,4.14,1.563,16.82,3.11,21.638,2.109m4.227,3.689c-4.624-1.538-12.556-2.568-17.949-1.584,4.512-.008,13.143,3.821,17.949,1.584m-10.029,3.172c4.549-.149,10.38,1.22,13.722.525-2.895-1.22-10.8-2.825-13.722-.525M77.3,175.437c-5.4-3.561-14.913-2.122-22.167-2.643,3.8,4.3,14.351.575,22.167,2.643M64.1,177.542c4.429-.993,9.45,2.75,12.138,0-2.514-.91-11.369-.819-12.138,0m-.529,3.168c3.118.352,9.1,2.122,10.554-.529-3.445.691-8.507-2.229-10.554.529m4.752,3.693c1.294.43,3.044.906,3.164-1.055-1.4.012-3.106-.289-3.164,1.055" transform="translate(66.896 407.769)" fill="#fff" fill-rule="evenodd"/>
      <path id="Path_2243" data-name="Path 2243" d="M103.449,171.9c-4.086,4.524-5.947,11.286-8.441,17.411-2.812.343-3.763-1.166-5.281-2.109-18.259-6.894-36.489-13.83-50.14-25.335A41.5,41.5,0,0,1,51.2,144.974,473.446,473.446,0,0,0,103.449,171.9m-53.3-16.369c2.8-.715,6.063-.976,7.386-3.16-2.556-2.452-5.695,1.46-7.386,3.16m6.332,1.055a6.6,6.6,0,0,0,5.281-2.1,13.971,13.971,0,0,0-5.281,2.1m-5.273,3.7c4.508.405,11.1-1.522,15.3-3.168-4.789-.579-10.633,1.915-15.3,3.168m-2.643,4.752c7.581-1.749,16.807-1.84,22.7-5.281-6.4-.815-18.027,2.436-22.7,5.281m24.805-3.168c-5.993,2.27-13.313,3.222-20.583,4.222,5.529,4.284,16.439-1.927,23.751-2.639.05-1.638-1.592-1.572-3.168-1.584m-15.306,8.974c8.495-.811,17.018-2.481,24.28-5.806-7.655.393-18,2.312-24.28,5.806m25.864-3.168c.939.124,2.643-.538,2.109,1.059-2.63,2.825-8.916,1.985-12.142,4.218,6.435.265,11.654-3.474,16.89-2.643-2.754,4.462-12.366,2.06-15.831,5.815,6.241-.1,14.483-2.763,20.058-5.281-4.165-.062-7.8-5.678-11.083-3.168m-21.642,5.277c5.037-.637,13.573-2.233,18.474-4.748-5.848,1.894-13.461,2.018-18.474,4.748M92.9,176.123c2.142-.488,2.543-1.137,4.748-.529-.509-.988,1.58-1.77,0-2.113-.757,1.377-5.364,1.642-4.748,2.643m-5.811,5.269c2.75-.761,5.517-1.514,7.39-3.164-2.618.9-5.715,1.323-7.39,3.164m2.639,2.643c2.374-.091,3.933-.993,4.752-2.643-2.088.376-4.111.819-4.752,2.643" transform="translate(124.13 454.584)" fill="#fff" fill-rule="evenodd"/>
    </g>
  </g>
</svg>
