 <svg xmlns="http://www.w3.org/2000/svg" width={819.223} height={522.912}>
    <defs>
      <clipPath id="a">
        <path
          data-name="Rectangle 130"
          fill="#fff"
          d="M0 0h430.593v739.89H0z"
        />
      </clipPath>
      <clipPath id="b">
        <path data-name="Rectangle 129" fill="#fff" d="M0 0h82.95v76.52H0z" />
      </clipPath>
      <clipPath id="c">
        <path
          data-name="Rectangle 140"
          fill="#fff"
          d="M0 0h103.166v103.989H0z"
        />
      </clipPath>
    </defs>
    <g data-name="Group 199">
      <g data-name="Group 198">
        <g data-name="Group 140">
          <g
            data-name="Group 139"
            transform="rotate(90 409.612 409.612)"
            clipPath="url(#a)"
            fill="#fff"
            fillRule="evenodd"
          >
            <path
              data-name="Path 2245"
              d="M22.519 27.748c-1.447 22.736-1.411 48.611-2.311 71.573-4.125 1.719-14.382 1.909-18.471 0-1.66-21.294.058-49.642 1.157-70.42 5.233-3.071 15.712-.791 19.625-1.153M5.78 53.143c2.524-6.015 10.986-12.008 9.81-17.892-1.334 7.52-9.358 11.42-9.81 17.892m.574-6.341c.647-3.6 4.826-6.716 4.618-9.245-1.723 2.519-6.142 5.4-4.618 9.245m0 10.959c1.963-4.767 7.648-8.887 7.5-13.849-1.167 5.572-7.757 8.779-7.5 13.849m-1.732 9.81c1.66-6.278 9.986-13.143 9.235-17.9-2.51 6.159-9.551 10.844-9.235 17.9m-.575 14.436c3.912-6.866 7.766-13.785 12.121-20.2-.683-.09-1.637.09-1.732-.579 1.063-1.841 5.513-3.315 3.46-6.35-3.912 9.359-14.065 15.556-13.849 27.129m1.154-12.121c-.579 0-.687-.466-1.153-.583.023 1.04-1.176 3.211 0 4.622 2.4-6.458 8.5-12.279 9.81-17.892a101.544 101.544 0 0 0-8.657 13.853m12.121 0C12.994 76.91 8.547 83.803 4.047 90.659c-.09-8.2 9.534-14.681 10.389-21.935-3.663 7.788-14.631 16.54-10.389 26.558 4.043-8.779 11.773-17.616 13.274-25.4M8.665 97.009h2.307c0-2.506 1.153-3.849 1.732-5.767h-1.157c-.656 2.23-2.2 3.577-2.886 5.767"
            />
            <path
              data-name="Path 2246"
              d="M89.469 354.445c3.225 7.164 11.42 9.362 18.471 12.7 2.646 8.652-4.342 14.952-9.235 19.624-5.509-1.42-8.078-5.771-13.853-6.929-11.362-12.691-29.254-21.931-35.206-38.1 4.143-3.125 8.254-11.406 13.853-10.963 2.831.226 4.089 3.817 6.345 6.35 5.1 5.712 13.586 15.224 19.624 17.318m-32.322-10.968c-.348-1.185.932-4.012-1.158-3.469.009 1.529-.317 3.406 1.158 3.469m11.542 9.235c-.769-4.238-1.379-8.629-3.464-11.551 1.009 4 1.66 8.358 3.464 11.551m-5.192-8.661c.253 3.745.326 5.147 2.307 7.508-1.325-3.817-2.637-12.334-2.307-7.508m10.963 4.618c.081-2.388-1.312-3.3-2.307-4.618.918 1.388.421 4.2 2.307 4.618m2.893 17.891c-2.342-7.086-4.066-14.788-7.506-20.781 1.66 7.779 1.922 16.942 7.508 20.782m-1.159-12.116a15.659 15.659 0 0 0-1.732-5.2c-.014 2.325.172 4.45 1.732 5.2m10.967 21.352c-3.786-8.525-4.5-20.126-10.389-26.553 3.636 7.6 3.107 20.1 10.389 26.553M68.117 359.06c-2.08-3.691-5.911-5.64-8.082-9.24.032 3.523 5.482 6.377 8.082 9.24m23.663 20.2c-2.569-6.458-5.7-19.163-9.235-24.812 2.383 8.969 4.618 18.082 9.235 24.812m-13.279-14.436c.746 2.32 1.153 6.5 3.469 6.359-2.248-4.871-3.324-10.909-5.775-15.594.38 4.324 1.28 6.042 2.307 9.235m19.044 16.744c-3.79-6.59-6.06-14.708-8.652-22.508a2.775 2.775 0 0 1-1.732-.579c2.99 9.064 4.428 19.43 10.389 23.084m-25.395-16.741c1.063-.882-1.651-4.966-2.886-3.46 1.529.588 1.56 2.673 2.886 3.46m27.127 15.016c-2.058-5.26-2.637-11.99-5.775-16.164.8 6.522 2.632 12 5.776 16.164m2.886-2.311c1.167-1.886-.932-4.6-1.728-6.345.258 2.433-.886 6.264 1.728 6.345"
            />
            <path
              data-name="Path 2247"
              d="M212.411 402.924c-3.745 3.378-3.876 10.353-6.929 14.428-21.28-3.157-49.407-4.45-67.53-12.696-.076-5.581 5.849-12.292 5.776-17.892a2.551 2.551 0 0 0 2.307-1.162c17.155 7.738 42.631 9.52 64.644 13.283-.606 2.528 1.954 1.891 1.732 4.039m-57.72-10.389c-.063-1.42-1.909-.122-1.732.574 8 5.852 14.093 13.609 24.242 17.322-7.553-5.92-14.5-12.433-22.51-17.9m9.814 15.585c-5.735-3.311-10.416-10.746-15.585-12.7 5.721 3.333 8.865 12.3 15.585 12.7m-5.776 0c-3.6-4.677-9.073-10.552-13.853-12.125 4.894 3.767 8.281 9.036 13.853 12.125m20.783 2.886c1.542-.33 3.6 1.71 4.618 0-7.743-3.6-12.564-10.14-19.624-14.428 3.374 6.44 11.384 8.236 15.006 14.428m-9.235-12.117c5.721 3.7 9.76 9.091 16.16 12.116-4.46-4.965-10.629-11.293-15.585-13.852 1.909.565-.647 1.144-.579 1.737m33.477 15c-9.082-4.184-13.817-12.726-23.084-16.737 5.979 6.92 14.993 13.871 23.089 16.739m-12.703-13.275c-1.185-.163-1.149-1.538-1.732-2.307-.864.095-2.13-.208-2.307.579 1.2.38 2.8 3.306 4.039 1.728m-38.093 5.189c-3.682-1.7-5.26-5.5-9.231-6.915 1.009 3.994 6.508 6.562 9.231 6.915m40.981-5.762c3.306-.213 4.514 4.708 6.929 3.464-2.071-.981-4.785-6.273-6.929-3.464m-24.242 8.081c-4.034-1.746-7.775-6.839-11.546-6.929 3.885 1.9 7.1 7.517 11.542 6.929m16.743-2.319c-.787-1.859-5.2-5.739-5.771-4.03 2.664.606 2.953 3.582 5.771 4.03m18.47 4.63c-2.614-2.4-6.612-6.468-9.81-6.35 4.052 1.33 4.636 6.133 9.81 6.35m-18.47-2.311c3.871 3.116 6.513 3.9 11.547 5.767-2.976-2.185-7.91-8.028-11.547-5.767"
            />
            <path
              data-name="Path 2248"
              d="M303.607 419.661c-3.573 5.839-3.035 14.061-6.924 18.466-14.337-2.289-29.167-9.136-45.6-10.384-6.752-.511-10.968-.6-16.164-2.89-2.301-7.239.087-13.132 1.734-20.192a327.37 327.37 0 0 1 66.954 15m-28.28 8.654c-9.208-4.64-16.074-14.7-25.4-17.313 9.014 4.844 13.342 17.44 25.4 17.313m-20.204-17.313c3.166 2.42 5.662 5.5 9.81 6.924 4.654 4.591 10.186 11.361 16.735 12.121-8.5-6.314-15.595-17.086-26.545-19.045m-1.155 7.503c1.565 4.206 5.423 6.119 9.81 7.5a87.531 87.531 0 0 0-16.734-15c.443 4.369 3.374 6.246 6.924 7.5m2.307 5.2c-4.195-3.536-11.038-10.464-14.426-10.971 4.541 3.546 8.6 10.638 14.428 10.972m-6.35-1.158a51.035 51.035 0 0 0-10.959-8.656c2.854 3.686 4.663 8.417 10.963 8.657m39.823 10.388c-5.979-6.911-13.8-15.052-21.356-18.462 6.47 6.803 11.57 14.971 21.356 18.462m5.197 1.724c0-3.772-4.283-6.449-6.929-9.231a80.225 80.225 0 0 0-9.235-8.661c-.678.095-1.637-.09-1.728.579 6.404 5.336 10.782 12.695 17.892 17.313m-51.949-13.266c-1.891-.633-4.075-3.985-5.771-2.89 1.931.588 3.125 4.93 5.771 2.89m48.484 1.153a4.041 4.041 0 0 1 0-3.464c-1.877.669-3.55-1.759-4.618 0 2.433.262 2.659 2.732 4.618 3.464m5.771 4.039v-2.881c-.864.09-2.13-.213-2.307.579 1.823-.289.213 2.858 2.307 2.3m-1.153 3.46c-.2-1.714-1.551-2.293-2.886-2.881.588 1.339 1.158 2.687 2.886 2.881"
            />
            <path
              data-name="Path 2249"
              d="M334.775 428.319c3.957 1.6 8.3 1.777 12.121 3.464 13.7 6.051 24.5 16.707 34.056 25.4 3.265 2.976 8.154 4.03 8.657 8.657-2.854 6.006-8.548 9.154-12.7 13.862-11.602-13.075-30.697-23.536-49.634-31.183 2.637-7.618 3.22-15.261 7.5-20.2m15.01 25.391c-.678-5.708-6.2-11.456-9.81-16.155 1.619 7.037 5.735 11.569 9.81 16.155m9.235 6.933c-3.84-8.665-10.171-17.924-16.16-22.514 5.893 7 8.5 17.277 16.16 22.514m-21.931-20.777c1.56 3.826 3.948 9.891 7.5 9.805-2.478-3.3-4.812-6.725-7.5-9.805m29.434 25.97c-4.364-9.294-10.787-19.611-16.739-25.4 3.749 8.127 9.376 18.987 16.739 25.4m6.929 5.776c-4.514-10.113-9.33-19.918-16.164-27.711h-1.732c6.648 8.557 10.154 20.244 17.9 27.711m0-4.618c-1.334-4.631-3.795-11.212-6.929-12.116 2.7 3.636 4.278 8.417 6.929 12.116m5.192 4.043c1.189-4.749-3.758-8.1-5.771-11.547 1.9 3.881 3.274 8.263 5.771 11.547"
            />
            <path
              data-name="Path 2250"
              d="M428.284 697.296c1.076 2.763-.032 7.725 2.311 9.231-4.989 11.592-.66 39.583-2.885 55.413-.552 2.469 1.619 2.23 1.732 4.043-6.115 2.673-11.931-.118-21.356.574-3.011-7.883-1.731-18.543-1.735-28.859 0-14.916-.552-29.235.574-40.402 7.865-1.14 12.894.486 21.359 0m-18.469 10.386c-.448-2.75 4.591-5.536 1.732-6.92-.014 2.5-4.021 4.03-1.732 6.92m1.732 20.2c3.41-7.648 10.022-14.848 10.963-23.089 1.737.023 2.1-1.284 2.89-3.464-.737-.027-.805-.737-1.737-.57-3.255 9.897-13.328 16.197-12.116 27.123m-1.732-16.158c1.117-2.551 4.645-5.73 4.039-8.082-.855 2.818-4.4 5.979-4.039 8.082m1.732 6.928c1.353-4.47 7.449-10.18 5.771-13.857-2.216 3.939-8.25 7.132-5.771 13.858m13.853-12.7c-3.261 8.67-9.145 14.722-12.7 23.1h-1.732c.719 3.048-1.768 5.889 0 8.078 5.359-9.4 15.916-23.916 14.432-31.175m-15.585 35.78v5.2c-.674.09-.629.9-.579 1.723-.9-.045-.4 1.682 0 .579 4.514-8.017 9.348-16.633 13.275-24.815 1.244-2.592 3.84-5.563 2.89-8.661-5.043 8.82-9.797 17.906-15.586 25.974m-1.158 11.546v3.464c4.6-6.807 12.935-16.078 15.585-25.4 1.095-3.858 2.171-5.075 1.158-8.652-4.983 10.788-10.904 20.653-16.743 30.588m.579-19.624c-.231-1.719.556-7.449-.579-6.35.235 1.723-.556 7.449.579 6.35m-.579 24.824v4.613c7.056-6.99 10.783-17.313 16.165-25.972-.063-.706-.172-1.37-1.158-1.158-4.555 7.951-8.042 16.97-15.007 22.517m7.508-2.316c-1.416 2.252-4.862 4.894-2.89 6.929 4.785-4.457 6.137-12.345 10.389-17.313-.063-.71-.172-1.37-1.153-1.162a120.741 120.741 0 0 1-6.345 11.547m.574 6.929c1.787-.76 3.2 1.71 4.039 0-3.021.475-1.294-4.134-2.307-2.89-.516 1.027-1.393 1.687-1.732 2.89"
            />
            <path
              data-name="Path 2251"
              d="M20.212 135.109c-2.221 20.9-.036 48.317-1.732 69.84-4.479 2.063-13.094-.009-16.165 3.46A24.441 24.441 0 0 1 .009 198.02c-.118-19.497 1.158-45.336.574-63.49 5.618-.882 14.111-.014 19.629.579M4.048 148.383c1.162-3.659 5.621-7.069 5.192-10.389-.9 2.108-.864-1.343-2.307-.574 1.425 4.672-5.956 5.721-2.885 10.963m0 13.853c2.885-8.855 12.553-13.993 12.12-24.242-1.8 9.941-12.9 13.65-12.121 24.242m0-7.5c1.71-3.682 4.572-6.205 5.771-10.393-.127-.443-.484-.669-1.153-.579-.877 3.944-5.681 7.019-4.618 10.972m0 13.279c3.017-6.033 8.756-12.406 10.389-17.9-3.274 5.762-10.2 10.959-10.389 17.9m10.968-12.129c.14-1.777 2.872-.972 2.307-3.464-1.578 0-3.4 2.7-2.307 3.464M4.048 176.664c3.311-6.888 9.869-13.6 11.542-20.208-4.211 5.988-13.289 10.19-11.542 20.208m0 7.5c3.853-8.26 10.429-13.81 13.274-23.081-.127-.448-.479-.669-1.153-.583-2.628 8.919-12.936 13.229-12.121 23.663m0 7.512c2.51-6.531 8.155-13.007 9.814-18.466-3.885 5.156-10.167 10.994-9.814 18.466m9.235-10.972a1.576 1.576 0 0 1 1.732-1.149c-.1-.859.2-2.135-.579-2.307.1 1.3-2.772 2.537-1.153 3.46m-9.81 16.739c2.27-3.745 8.48-9.529 6.924-13.283-2.8 3.939-5.477 8-6.924 13.283m0 5.192c3.36-2.65 8.1-9.914 7.5-12.7-2.668 4.066-5.59 7.874-7.5 12.7m4.039 0c2.212-1.072 4.8-4.8 4.039-6.924a35.441 35.441 0 0 0-4.039 6.924"
            />
            <path
              data-name="Path 2252"
              d="M45.031 306.535c-7.087-.746-11.786 4.876-16.743 8.073-6.929-3.342-8.236-11.859-11.542-18.466-.683-1.361-2.1-2.062-2.886-3.469-2.094-3.727-2.623-9.62-4.043-15-2.965-11.269-6.045-22.576-5.769-36.361 6.583-.348 13.433-.43 17.892-2.89 2.736.348 1.081 5.079 4.043 5.2.217 2.533-.294 5.151 0 7.5 2.748 21.976 13.948 36.426 19.048 55.413M8.092 250.543c-.878-1.845 1.673-4.421-.579-4.043-.308 1.266-1.393 3.74.579 4.043m1.727 12.125c.127-6.033 3.668-11.728 4.043-15.594-1.487 4.419-6.286 11.248-4.043 15.594m2.89 11.538c1.013-8.05 6.508-17.7 5.192-24.242-1.226 8.344-8.155 17.064-5.192 24.242m1.728 6.929c1.732-9.235 6.35-18.665 5.776-28.285-.882 10.045-9.06 19.547-5.776 28.285m-1.728-20.778c-.014-1.786 2.121-4.378 1.153-5.192-.33 1.434-2.89 3.6-1.153 5.192m6.922 33.473c.425-11.519 6.21-22.46 4.039-32.9-1.431 9.916-8.639 22.652-4.039 32.9m-9.812-25.974c2.1.176.773-3.075 1.732-4.039a3.313 3.313 0 0 1-2.311-.57 10.619 10.619 0 0 1 .579 4.609m6.929 19.624c-.452-7.761 3.365-14.328 2.886-20.2-.972 6.581-6.119 14.744-2.886 20.2m5.192 11.542c.81-9.113 5.712-19.923 3.464-28.285.009 8.39-6.237 19.285-3.464 28.285m3.464 6.929c-.968-10.556 4.3-19.828 2.311-27.706-.615 8.629-6.771 21.37-2.311 27.706m2.311 4.043c.692-6.59 4.74-18.39 2.307-25.979-1.452 8.779-3.822 16.16-2.307 25.979m2.886-.572c3.193-1.682 3.3-12.388 2.307-14.437.086 5.286-3.134 10.324-2.307 14.437m5.192-3.464c2.261.941 1.208-6.115 0-3.464 1.108.068-.674 1.927 0 3.464"
            />
            <path
              data-name="Path 2253"
              d="M406.925 493.542c2.139-.407 2.478.981 4.618.579 10.027 16.218 17.055 43.745 15.585 65.801-5.517 2.854-11.316 2.212-16.167 3.46-8.911-17.824-3.692-49.791-20.2-60.026 4.627-4.369 11.035-5.39 16.164-8.082Zm-4.043 20.773c.624-4.174.7-8.928 1.158-13.274h-1.728c.556 5.26-2.732 10.2.57 13.274m2.89 7.508c-.19-6.011 2.619-15.011 0-19.62.651 6.553-4.175 15.1 0 19.62m-6.929-13.857c2.026.452 1.348-4.758.579-5.2-.023 1.9-.972 2.872-.579 5.2m9.235 20.208c.213-8.069 1.325-15.228 2.311-22.519a2.721 2.721 0 0 1-1.732-.579c1.569 9.226-4.256 18.819-.579 23.1m1.153 9.231c.936-9.073 4.247-20.054 2.311-26.553 0 10.384-4.4 18.385-2.311 26.553m1.158 8.652c1.578-10.47 5.947-23.885 4.039-34.047-.294 12.994-5.255 22.971-4.039 34.047m8.657 8.661c.271-8.2 4.523-14.156 2.311-20.773-.511 6.319-3.288 13.619-2.311 20.774m-5.771-8.078c-.353-1.379.724-4.188-.579-4.618-.118 4.9-3.265 9.489-.574 13.858 1.149-5.4 4.346-11.813 3.46-17.322-1.1 2.356-.167 6.762-2.307 8.082m.574 9.24c5.179-1.063 3.8-13.79 4.043-16.743-1.149 5.776-2.121 11.737-4.043 16.743m7.512-1.162h2.3c.222-1.949-1-2.46-1.732-3.46.014 1.361-1 1.692-.574 3.46"
            />
            <path
              data-name="Path 2254"
              d="M428.86 593.978c.086 22.1.954 51.193-.579 75.032-5.672 1.126-13.333 4.043-19.624 0-3.319-4.785-1.773-11.126-1.727-17.896.108-18.308-.227-40.868 1.153-56.557 7.347-.896 16.372 2.781 20.777-.579m-12.695 16.16c.715-4.1 5.147-7.539 4.039-11.542-1.131 3.682-4.328 8.358-4.039 11.542m-6.35 20.777c3.663-9.611 10.561-19.068 12.7-28.281-3.74 8.644-12.754 15.979-12.7 28.281m5.771-27.127c-2.243 2.184-1.719 7.132-6.35 6.924.366 1.945-.742 5.364.579 6.354 2.189-3.446 5.78-11.46 5.771-13.278m-6.35 30.013c.086 4.667-.674 8.819.579 13.279 4.971-11.194 12.858-22.542 15.585-34.061-2.619 4.179-4.405 9.742-6.929 14.432s-5.341 9.927-8.656 12.127c6.146-11.167 12.089-22.537 16.739-35.21-.131-.448-.484-.674-1.153-.579-5.671 9.723-10.299 20.489-16.165 30.012m.579-12.116a13.251 13.251 0 0 0 1.153-3.469h-1.732c.335 1.022-.7 3.392.579 3.469m6.924 15c-2.433 4.577-4.075 9.855-5.771 12.7-.76 1.275-4.156 5.644-.579 5.192 2.89-10.383 11.57-19.976 15.011-31.744h-1.736c-1.732 4.554-4.089 8.53-6.924 13.853m8.661-.574c1.841.814 1.452-3.46.574-3.46-.665.683-.651 2.035-.574 3.46m-13.279 19.62c-1.248 1.447-3.5 1.891-2.886 5.2 3.876-2.555 5.816-8.24 8.082-12.691 2.393-4.722 4.7-9.6 5.771-13.862-3.704 7.074-7.759 13.791-10.967 21.353m.579 7.508c5.767-3.659 5.947-12.908 9.81-18.471-.063-.7-.172-1.366-1.153-1.162-2.18 7.259-6.621 12.239-8.657 19.633m12.699-10.962c2.895.226 1.122-3.758 1.153-4.039-.484 1.244-1.5 1.958-1.153 4.039m-8.661 10.961c2.985-2.085 6.63-9.444 5.192-12.126-1.592 3.862-4.857 8.9-5.192 12.126"
            />
          </g>
        </g>
        <g data-name="Group 190">
          <g
            data-name="Group 136"
            transform="rotate(45.97 -394.567 243.932)"
            clipPath="url(#b)"
          >
            <path
              data-name="Path 2244"
              d="M17.634 0C29.52 12.6 36.455 28.5 54.557 42.462c4.648 9.082 16.883 20.069 28.386 27.965-4.832 3.7-13.666 2.061-20.284 2.1-6.144 1.6-16.408 1.7-27.424 2.018-10.429.289-26.441 4.291-32.717 0-5.485-3.743-.639-10.5 1.609-15.55 1.571-6.916 2.771-14.006 4.139-20.966 1.371-6.943 4.674-14 2.953-20.979.956-1.16 2.571-2.307 3.072-3.467.1-1.557-2.821-3.148-3.454-4.709 8.379-1.251 1.569-5.468 6.8-8.875m3.013 20.272q6.141 4.159 12.268 8.318c-1.681 1.225 3.013 1.276 0 0 .5-1.423-2.643-2.885-2.848-4.317-1.991.207-3.909-2.221-5.887-2.406-.883-.944-1.371-3.864-4.074-3.545.864.655 2.11 1.32.541 1.949m-6.131 6.934C25.762 33.161 42.671 48.612 57.135 56.9c-11.556-10.018-27.47-24.17-41.98-31.63.488.655.415 1.3-.639 1.936m36.567 33.51c7.067 5.123 13.132 10.276 18.8 8.775C50.444 56.723 30.871 38.84 14.391 31.876c11.536 9.215 26.184 21.207 36.692 28.84m-.224-13.622C47.134 40.38 34.886 33.5 25.798 27.728 32.941 33.7 43.607 43.7 50.859 47.094m-20.838.919c3.977 2.962 15.432 11.172 13.428 9.107-7.067-7.253-.5.233-5.261-3.562-5.663-4.515-16.949-13.519-24.517-17.408 3.7 4.2 10.66 7.65 16.349 11.863m.949 8.577c7.278 5.416 19.223 16.9 24.055 12.346-11.84-7.822-32.493-25.261-42.691-27.352 2.09 5.2 11.53 9.715 18.636 15.007m9.157 13.338C29.998 66.8 19.987 57 11.477 51.3c-.171 5.373 17.476 14.627 26.224 20.16 2.8-1.177 5.57-.677 8.379-1.462-11.182-7.031-25.512-18.364-34.498-22.585 8.214 8.711 23.6 16.317 28.544 22.514M32.368 71c-7.812-4.765-15.558-11.591-23.4-15.058 3.194 4.834 15.759 12.95 23.4 15.058m-5.953-.065c-5.917-1.422-11.655-9.413-17.595-9.546 3.257 3.031 10.978 12.44 17.595 9.547m-13.717 1.009q-2.345-1.585-4.675-3.165c-.593.375-1.206.763-1.813 1.143 2.162.539 4.278 3.269 6.487 2.022m1.859-2.7c-2.782-.655-2.749-2.829-4.713-1.613 1.569.586 3.079 3.372 4.713 1.613"
              fill="#fff"
              fillRule="evenodd"
            />
          </g>
        </g>
        <g data-name="Group 186">
          <g
            data-name="Group 165"
            transform="translate(346.112 418.923)"
            clipPath="url(#c)"
          >
            <path
              data-name="Path 2373"
              d="M26.023 4.412c4.142 1.673 8.292-3.022 13.51-3.05-.519-.574-.164-.686 0-1.311 1.192-.314.878.867 1.745.874 12.407-1.564 24.8.881 33.994 5.666a52.228 52.228 0 0 1 27.46 44.017c.126 2.981-1.39 6.584.434 9.59-3.238 4.761-4.313 11.085-6.974 16.563a71.469 71.469 0 0 1-9.152 13.946c-11.731 8.237-28.646 16.242-47.941 12.2-2.722-.57-5.635-2.807-9.149-4.358-3.463-1.527-6.782-1.834-9.152-3.924-1.912-1.677-4.238-5.129-6.977-7.844C8.947 81.948 6.345 78.908 3.8 72.398c-9.517-24.284-.587-52.42 20.481-64.062.6-1.291 1.554-2.23 1.742-3.924m33.993 12.635A79.674 79.674 0 0 0 44.768 3.541c4.764 4.822 9.238 9.934 15.248 13.507m-4.354-8.712c.055.639-4.627-2.848-3.49-4.795h-3.484c2.732 3.091 5.97 6.622 9.152 9.586 2.356 2.2 5.188 5.054 8.282 5.228-3.627-2.91-7.1-8.3-10.46-10.02m27.894 26.15c-.516.065-1.236-.079-1.311.434 1.069.912.932.625 2.616.437-8.1-10.495-16.713-20.477-27.02-28.765a3.076 3.076 0 0 0 0-2.616c-2.152-.389-2.8.266-4.795-.434 9.825 10.657 20.692 20.279 30.51 30.944M46.94 9.644c-2.073-2.06-3.811-6.846-6.97-5.232 2.315 1.465 5.054 4.819 6.97 5.232m-4.791 0c-.888-1.738-3.217-4.327-4.791-3.924 1.882 1.018 2.7 3.111 4.791 3.924M90.53 35.793C80.408 25.428 70.774 14.575 59.583 5.282c8.674 9.777 20.747 22.256 30.947 30.51m-2.619-10.46c-4.853-3.743-8.292-9.344-12.639-13.51-1.591.283-1.667-.946-3.046-.874v-1.3c-3.777-.2-5.8-4.3-9.156-3.49 9.753 10.3 22.065 21.809 33.123 32.252-6.424-8.394-14.9-15.966-22.229-23.1-2.483-2.422-5.335-4.642-6.974-7.412 10.74 8.148 19.4 18.37 29.2 27.457-.8-4.576-5.611-7.967-8.282-10.023m-52.733-13.51c-.191-1.687-3.186-6.588-4.791-3.487 2.155.283 4.873 4.218 4.791 3.487M56.1 17.047c-1.841-3.384-5.307-5.15-7.844-7.844 2.216 3.019 3.244 7.216 7.844 7.844m-22.225 0c-2.735-1.957-4.323-7.24-7.848-6.974a40 40 0 0 0 7.848 6.974M23.41 12.698c3.743 2.79 7.11 5.966 10.894 8.715-2.257-4.573-6.711-6.943-10.023-10.46-.007.867-1.188.553-.871 1.745m13.073 7.4c1.3-.154 2.654-.253 3.05-1.308-2.988-2.1-5.662-6.823-8.715-7.407 1.725 2.876 7.517 5.013 5.666 8.715M51.3 17.047c-1.185-2.879-4.081-4.057-6.1-6.1 1.356 2.715 2.718 5.413 6.1 6.1m-7.411.874c-2.6-.6-3.265-5.44-5.666-4.795 1.277.6 1.445 1.793.434 2.616a7.766 7.766 0 0 0 8.715 1.742c-1.9-1.871-4.255-5.611-6.533-5.662.936 1.745 5.16 4.132 3.05 6.1m-22.658-3.924c2.916.707 4.812 6.625 7.411 4.795-2.975-.649-4.921-6.516-7.411-4.795m4.791 7.411c-.3-1.8-3.866-6.246-6.536-5.666 2.373 1.694 3.746 4.388 6.536 5.666m66.249 5.666a32.3 32.3 0 0 0-10.9-10.027c3.712 3.265 7.25 6.7 10.9 10.027m-64.5-1.308c-4.1-2.438-5.375-7.7-10.894-8.719 3.108 3.145 7.356 7.462 10.894 8.719m-2.179 3.053c-.888-4.228-6.653-7.278-10.46-10.027 2.213 4.617 7.035 6.622 10.46 10.027m57.964 28.765c-.28-4.382-.085-7.735-2.182-10.9.939-1.684-1.957-7.739-3.921-11.331-5.327-9.731-22.553-16.179-35.304-14.383-1.035.71-1.769 1.718-3.05 2.179-.854.13-.864-.587-1.308-.871-9.34 5.509-20.122 16.58-19.179 30.944.314 4.74 4.132 8.241 3.053 12.2 7.551 11.048 17.263 19.934 37.05 18.742 1.325-.7 2.029-2.035 3.48-2.613 5.652 1.373 7.291-4.474 11.768-5.666.406-1.714-1.513-1.1-.871-3.053 1.544-.236 1.072 1.544 2.619 1.308.987-1.182 1.492-1.55.867-3.487 2.493-1.574 4.46-3.671 4.358-7.844 1.629.123 2.6-3.186 1.308-4.795.956-.28 1.39 1.236 1.311-.434m-60.579-27.02c.984-1.376-2.363-3-4.364-5.228-1.9-2.121-2.862-5.526-5.662-4.361 2.695 3.845 6.963 6.11 10.027 9.59m6.973-5.664c.024-2.059-1.595-2.476-2.619-3.487.242 1.8 1.434 2.633 2.619 3.487M13.383 23.15a2.458 2.458 0 0 0-1.742.437c2.353 4.334 6.9 6.472 10.46 9.59-.714-3.825-6.642-6.12-8.719-10.027m3.49 8.719c-2.346-2.015-4.081-4.638-6.536-6.536-.109 2.493 4.682 6.014 6.536 6.536m.437 6.536a24.577 24.577 0 0 0-8.719-9.152c1.984 3.972 5.655 6.256 8.719 9.152m-3.053 1.745a73.548 73.548 0 0 0-7.411-8.719c-.888 4.013 6.823 7.633 7.411 8.719m0 4.791a110.634 110.634 0 0 0-8.282-9.586c-1.622 2.978 7.015 8.107 8.282 9.586m76.274-6.536c-1.24-.516-2.162-3.627-3.49-2.613 1.346.413 2.51 3.278 3.49 2.613m8.278 14.818c-3.487-6.827-9.624-11-13.51-17.431 1.6 7.148 8.514 12.274 13.51 17.431M3.8 41.021c4.979 3.914 9 6.673 13.076 10.894.28-1.731-1.158-1.752-.874-3.483-5.007-2.257-6.8-7.728-11.768-10.027a3.72 3.72 0 0 0-.434 2.616m95.882 18.742c-.505-5-4.706-7.851-7.411-10.9-2.906-3.275-5.509-6.547-8.285-10.023-.02-.266-.065-.516-.43-.437 3.582 8.91 10.013 14.979 16.126 21.358m-.441-12.2c-2.274-2.957-5.512-7.267-8.712-7.848 3.661 1.854 5.027 6.011 8.712 7.848m-81.5-4.795c1-.867-1.807-3.2-2.179-2.616 1.154.441 1.182 2.015 2.179 2.616M3.36 44.942c4.607 3.241 7.585 8.107 13.076 10.46-2.759-4.392-8.11-9.087-12.636-13.073a3.694 3.694 0 0 1-.437 2.613m13.951 2.182c.075-2.841-2.186-3.337-3.49-4.795a11.8 11.8 0 0 0 3.49 4.795m-.441 13.074c-3.705-5.014-9.261-10.5-13.943-13.074a80.635 80.635 0 0 0 13.943 13.074m77.14-1.308c-2.548-4.283-4.477-9.176-8.278-12.2 2 4.829 5.071 8.579 8.278 12.2M20.8 67.608C15.883 60.317 8.517 55.474 2.93 48.866c-1.6 8.661 7.745 11.444 11.328 14.818-3.214-3.617-9.026-6.953-10.46-10.9 5.976 4.341 11.328 11.628 17 14.821m71.908-5.669a13.7 13.7 0 0 0-6.1-8.715c1.066 3.873 3.459 6.417 6.1 8.715M2.489 58.889c9.391 9.094 19.189 18.923 29.2 27.024 3.282 2.65 6.26 6.519 10.46 7.407C29.475 83.481 19.6 70.838 6.847 61.068c-.342-2.852-3.074-3.313-4.358-5.229Zm83.246-2.613c.355 1.229-.615 1.127-.437 2.175 3.856 4.429 6.806 9.757 11.335 13.514-.2-.97 1.346-2.363.43-2.616-4.487-1.906-7.131-9.426-11.328-13.073m12.639 7.844c.97-2.517-2.589-6.349-3.927-6.536 1.55 1.933 2.087 4.887 3.927 6.536m-8.719 5.228c1.834 2.486 3.2 5.334 5.228 5.669 1.308-2.476-2.889-2.811-2.613-5.669-3.263-2.109-4.27-6.48-7.409-8.714.137 4.047 2.8 6.007 4.795 8.715m-83.68-2.612C17.519 74.226 26 87.098 37.791 92.886 28.4 84.912 18.479 76.006 9.9 67.608c-1.619-1.585-5.611-6.267-5.669-4.795 1 .891 1.028 2.753 1.745 3.924m91.961 1.308c-.7-2.114-2.913-6.694-4.795-4.795 2.715.482 2.527 3.866 4.795 4.795m-4.794 10.453c-2.172-5.526-5.6-9.8-9.156-13.944 1.055 4.972 5.6 10.044 9.156 13.944m-11.332-9.149c3.128 4.136 5.915 8.613 9.586 12.206-1.318-4.7-5.86-9.781-8.715-14.384-.191.83-.939 1.1-.871 2.179M41.278 90.27c-7.629-7.189-14.729-14.9-23.1-21.355 6.9 7.636 15.518 15.86 23.1 21.355m38.354-17.434c3.709 3.029 5.4 10.211 10.023 10.894-2.9-5.054-4.87-8.989-9.586-12.636.1.823-.492.963-.437 1.742m-64.937 3.053c-.714-1.3-2.339-3.289-4.358-3.49 1.95 1.383 4.347 3.477 4.358 3.49m61.885 0c2.831 3.852 6.383 6.98 8.719 11.328-.686.041-.342 1.113-1.311.874-2.934-3.337-5.505-9.282-9.152-10.46 1.786 5.341 5.929 8.312 8.282 13.076 1.048-1.277 2.035-2.616 3.924-3.053-1.588-5.963-5.345-9.767-8.715-13.944-.1 1.209-1.383 1.229-1.745 2.179M23.41 88.091c-5.683-3.47-10.2-10.433-15.689-12.639 5.406 3.746 10.02 10.608 15.689 12.639m2.179 0c-4.549-4.457-8.937-9.081-13.947-13.073a52.949 52.949 0 0 0 13.947 13.073m46.2-6.974c2.954 3.442 5.9 9.207 10.023 10.023-3.682-3.291-5.112-8.842-9.15-11.767-.01.867-1.2.557-.874 1.745M26.9 93.757c-5.338-3.821-10.447-10.184-15.7-12.639 4.5 4.661 9.864 10.768 15.7 12.639m47.938-2.616c.051-.533.13-1.031.878-.871a12.2 12.2 0 0 0 1.3 3.924c1.229.359 1.127-.618 2.179-.437-1.919-4.914-6.509-7.148-8.278-12.2-5.7 1.27 2.677 6.991 3.917 9.586m-9.586-7.411c.813 3.111 3.21 4.641 4.361 7.411.823.1.96-.492 1.742-.434 1.3 1.605 1.236 4.573 3.483 5.228-1.564-3.739-5.085-11.387-9.586-12.207m-23.533 4.795c-.628-1.383-3.859-4.4-3.924-3.483 1.287.721 4.088 4.177 3.924 3.483m22.229-3.483a2.439 2.439 0 0 0-1.749.434 34.667 34.667 0 0 0 9.156 12.206c-.338-4.634-5.437-8.2-7.407-12.639m-19.617 3.482a3.281 3.281 0 0 0-2.613-2.613c.608 1.137 1.1 2.387 2.613 2.613m23.54 10.027c-1.789-3.74-4.487-10.331-9.593-12.206a66.67 66.67 0 0 0 9.593 12.206m-20.053-8.719c-.533-1.352-.956-2.817-2.613-3.05.236 1.649 1.813 1.964 2.613 3.05m13.076 10.9c.079-.645 1.055-.4 1.745-.437-3.975-4.747-8.343-11.41-13.947-13.076 3.876 4.7 8.989 8.159 12.2 13.513m.871-4.795c1.072.686 1.848 3.938 3.487 2.616-4.306-3.685-5.28-10.7-12.2-11.768 1.407 2.807 5.86 6.338 8.715 9.152m-5.228 3.05a22.609 22.609 0 0 0-6.974-7.844 24.849 24.849 0 0 0 6.974 7.844m-10.9-1.742c-1.033-1.148-1.733-2.632-3.484-3.048.543 1.359 3.1 2.978 3.487 3.05m-3.05 2.179c-.9-.287-2.537-2.073-3.053-1.308.925.2 2.7 3.343 3.053 1.308"
              fill="#fff"
              fillRule="evenodd"
            />
          </g>
        </g>
        <path
          data-name="Path 2387"
          d="M174.95 278.413c.439-.818 1.021-.441 1.49-.99 12.461 9.352 19.578 16.794 32.712 26.995 1.738.512-1.328-1.657.502-2.48 1.829.65 3.277-1.74 5.21-.242 7.762-12.471 18.366-22.97 23.377-32.669 8.015 6.682 12.075 9.139 18.901 16.207-1.127 2.84-2.994-.364-4.313.932-6.103 9.69-17.158 22.806-24.768 34.453 9.957 9.706 21.93 18.656 32.367 27.44 1.862.945 3.208-2.309 5.307.557-4.922 5.793-12.135 17.582-18.195 22.374-2.287-1.331.776-3.32 1.797-5.052-10.876-6.129-22.714-18.904-35.193-27.499-9.955 9.028-21.192 26.968-29.181 34.598-4.84-3.782-11.959-11.77-15.784-13.771 7.538-10.408 20.632-25.446 27.036-35.535-2.891-6.124-12.183-7.796-13.656-12.823-1.376-.543-1.45-1.043-3.274-.404-2.828-5.745-12.319-12.352-16.826-12.436 3.292-6.449 10.702-13.398 12.483-19.656m-.92 12.193c-1.102 1.068-4.584-.403-4.222 1.727 1.202-.248 4.483-.413 4.221-1.727m-3.538 7.285c3.725.19 7.108-2.01 10.914-2.952 3.821-.947 9.431.344 9.682-3.204-7.528 1.052-14.939 2.985-22.377 4.763.594.467 1.19.93 1.784 1.393m16.675-8.496c-3.09 1.092-8.426 1.279-10.02 3.649 2.836-1.444 9.984-1.158 10.02-3.649m-2.23-1.741c-1.813-1.692-3.254-.25-4.759.584 1.628.126 3.3.616 4.76-.584m-.768 10.162c3.455-.726 8.92-.5 9.675-3.203-1.432-1.814-2.386.209-3.52.835-5.579.51-13.183 1.977-17.165 4.526 3.263.149 7.1-1.33 11.01-2.158m14.676 1.422c-1.651-.87-1.839-1.92-2.772-2.883-6.906 2.837-14.118 3.101-21.036 5.807 8.24 1.524 15.918-1.578 23.808-2.924m2.669 2.09c-7.449-.532-14.491 2.241-21.677 3.871 7.38-.048 14.547-1.809 21.677-3.87m-14.899 9.882c6.843-1.169 13.781-1.483 20.444-4.116a3.708 3.708 0 0 1-1.88-2.187c-6.776 1.667-13.7 2.127-20.34 4.915.592.46 1.19.924 1.782 1.387m16.676-8.487c-2.072.673-6.367.463-6.937 2.464 2.03-1.013 6.421-.041 6.937-2.464m3.266 6.845c-4.724 2.257-14.076 1.01-15.932 4.777 3.604-.241 12.577-2.493 15.932-4.777m9.113 2.099c7.004-1.793 14.81-2.788 20.848-7.388a396.836 396.836 0 0 0-43.563 12.603c7.797.06 15.032-3.234 22.716-5.207m-16.926 9.735c9.114-2.351 20.603-2.738 28.077-7.477-9.994 1.717-19.883 4.235-29.86 6.084.592.457 1.186.924 1.782 1.393m28.358 1.35c-1.04-.816-2.078-1.622-3.12-2.439-9.464 3.863-19.422 3.673-28.779 8.362-.172.424-.674.889-.25 1.24 10.655-2.837 21.437-4.684 32.142-7.171m-3.76-4.37c-4.997 1.154-10.111 1.587-14.977 2.646-3.155.68-7.767 1.669-8.094 3.009 7.83-.75 15.468-2.986 23.068-5.648m-17.788 25.54c-7.766 2.679-20.08 1.993-27.286 7.38-.63.474-1.3 1.71-.947 2.13 9.272-4.32 19.065-4.355 28.23-9.51m2.09-2.669c-.122-2.296 3.404-2.544 3.038-4.806-9.498 3.584-19.248 5.09-28.583 9.958-.175.424-.677.889-.25 1.24 8.553-2.546 17.175-4.44 25.795-6.392m13.013-12.076c-10.31.206-20.168 4.109-30.21 6.53-1.226 2.16-4.512 4.576-4.421 6.588 3.438-.188 2.663-2.195 3.83-4.903 10.04-4.604 20.67-4.372 30.803-8.21m-3.87-21.677c-1.416-.778-5.216-.43-3.874 1.282 1.144-1.627 2.647-.293 3.873-1.282m33.466-22.636c-1.705-1.172-2.182-.723-3.12-2.432-6.772 3.854-16.112 4.342-21.44 9.08 8.097-2.98 16.403-4.198 24.559-6.642m-2.96-4.467c-6.152.238-14.247 2.032-18.462 7.102 6.074-3.048 12.368-4.23 18.461-7.102m-3.12-2.438q-1.342-1.044-2.675-2.09c-2.582 3.06-7.792 2.088-8.839 6.727 3.67-2.894 7.737-2.63 11.51-4.637m-2.615 18.042c-8.538 2.668-19.374 4.038-26.202 9.666 8.316-4.48 19.48-3.137 26.202-9.666m3.474-4.456c-4.207 1.222-8.664 2.676-13.197 4.038-4.296 1.288-9.87 1.533-12.654 5.181 8.231-4.053 19.105-4.059 25.85-9.22m3.832-4.898c-8.757 4.164-18.157 3.014-26.648 9.317 8.563-3.495 19.756-3.13 26.648-9.317m-33.01 45.936c-8.793 1.628-17.6 3.16-26.045 7.623 8.537-1.54 19.059-4.386 26.045-7.623m20.402-30.697c1.515-.547 3.111 1.49 2.624-1.532-1.712 1.339-3.71.394-5.364 2.27-2.83-.513-5.53 1.008-8.627 1.866-2.477.688-6.117.8-5.711 2.717 5.512-1.445 12.066-3.53 17.079-5.322m-41.928 55.487c-5.792 2.063-11.722 2.95-17.514 4.971 5.731-.401 13.56-1.09 17.514-4.971m2.439-3.115c-3.657 1.145-11.426 2.684-12.4 3.94 3.845-1.502 10.193-.009 12.4-3.94m5.92-7.578c-4.172 3.22-10.95 2.632-13.796 5.724 4.293-2.204 11.234-.33 13.796-5.724m30.378-37.962c-4.26.312-8.252 2.766-12.412 3.942 4.332.248 8.719 1.004 12.412-3.942m-43.604 54.892c-2.003-.989-3.572 1.515-5.461 1.47 2.104 1.813 3.724-.274 5.461-1.47m28.665-25.674c6.547-2.476 13.334-2.922 19.893-5.264-5.539-1.157-13.854 2.926-20.535 3.327.332-1.585-2.943-1.813-2.034-.153 1.357-.892.91 1.712 2.675 2.09m12.669-11.624c-1.04-.815-2.082-1.623-3.12-2.438-1.264 1.868-4.938 1.15-4.918 2.62 2.51-1.417 5.59 1.787 8.038-.182m11.679 9.84c-4.414-4.178-7.698.72-11.654.222-3.883 1.195-7.908 1.238-11.71 3.05 8.085 1.312 15.61-1.9 23.363-3.272m-7.229-6.358c-1.774-1.317-3.172.425-4.764.585a4.256 4.256 0 0 0 4.764-.585m-4.752 17.095c1.707 4.06 16.375-2.27 21.426-2.63-7.177-1.476-15.57 4.203-21.523 1.836 6.13-2.583 12.69-1.623 18.85-3.926-2.613-2.702-4.623-.482-6.79.43-5.975-.533-11.473 2.798-17.558 1.35 6.542-3.593 16.003-.856 21.134-5.013-8.126-1.658-15.59 2.055-23.36 3.272 1.036 4.118 7.321 3.49 7.821 4.681m24.544-.192c-7.63-.932-14.772 2.155-22.123 3.522 7.588.564 14.88-1.294 22.123-3.522m-17.121 8.147c6.895-1.803 13.99-1.92 20.785-4.567-1.616-.745-1.268-1.723-2.326-2.535-6.457 3.21-13.374 2.598-19.897 5.264.92.557.591 1.27 1.435 1.838m21.423-2.63a92.3 92.3 0 0 0-18.405 4.275 55.751 55.751 0 0 0 18.405-4.275M256.439 355c-3.66 1.961-9.773 1.295-11.958 4.284 3.704-1.557 9.752-1.435 11.958-4.284m-6.269 8.024c.562-1.278 3.083-2.796 2.335-3.913-1.567 1.456-3.355 1.087-5.007 1.823l2.674 2.09"
          fill="#fff"
          fillRule="evenodd"
        />
      </g>
    </g>
  </svg>