<svg xmlns="http://www.w3.org/2000/svg" xmlns:xlink="http://www.w3.org/1999/xlink" width="721.57" height="392" viewBox="0 0 721.57 392">
  <defs>
    <clipPath id="clip-path">
      <rect id="Rectangle_129" data-name="Rectangle 129" width="67.296" height="62.08" fill="#fff"/>
    </clipPath>
    <clipPath id="clip-path-2">
      <rect id="Rectangle_128" data-name="Rectangle 128" width="229.699" height="657.322" fill="#fff"/>
    </clipPath>
  </defs>
  <g id="Group_207" data-name="Group 207" transform="translate(-169 -539.371)">
    <g id="Group_137" data-name="Group 137" transform="matrix(0.035, -0.999, 0.999, 0.035, 826.18, 802.626)">
      <g id="Group_136" data-name="Group 136" transform="translate(0 0)" clip-path="url(#clip-path)">
        <path id="Path_2244" data-name="Path 2244" d="M14.308,0c9.643,10.222,15.269,23.118,29.955,34.449,3.77,7.368,13.7,16.282,23.029,22.687-3.92,3.005-11.087,1.672-16.456,1.7-4.985,1.294-13.312,1.382-22.248,1.637-8.461.234-21.452,3.481-26.543,0-4.45-3.037-.519-8.522,1.3-12.615C4.628,42.251,5.6,36.5,6.708,30.853S10.5,19.5,9.1,13.833c.775-.941,2.086-1.872,2.492-2.813.08-1.263-2.289-2.554-2.8-3.82,6.8-1.015,1.273-4.436,5.514-7.2m2.444,16.446q4.982,3.374,9.953,6.748c-1.364.994,2.444,1.036,0,0,.406-1.154-2.145-2.34-2.31-3.5-1.615.168-3.171-1.8-4.776-1.952-.717-.766-1.112-3.135-3.305-2.876.7.532,1.711,1.071.439,1.581m-4.974,5.625C20.9,26.9,34.621,39.438,46.354,46.158,36.979,38.035,24.069,26.553,12.3,20.5c.4.532.337,1.057-.519,1.571M41.445,49.258C47.178,53.414,52.1,57.595,56.7,56.377,40.926,46.018,25.047,31.51,11.677,25.86c9.359,7.476,21.243,17.205,29.768,23.4m-.182-11.052C38.241,32.759,28.3,27.179,20.929,22.495c5.8,4.845,14.451,12.958,20.334,15.711m-16.906.745c3.225,2.4,12.52,9.064,10.894,7.389-5.733-5.884-.406.189-4.268-2.89-4.594-3.663-13.75-10.968-19.89-14.123,3,3.411,8.648,6.206,13.264,9.624m.77,6.958c5.9,4.394,15.6,13.714,19.516,10.016C35.038,49.58,18.282,35.432,10.008,33.735c1.7,4.216,9.354,7.882,15.119,12.175m7.429,10.821c-8.22-2.536-16.339-10.488-23.243-15.113-.139,4.359,14.178,11.867,21.275,16.355,2.273-.955,4.519-.549,6.8-1.186-9.071-5.7-20.7-14.9-27.987-18.321C16.062,45.532,28.545,51.7,32.556,56.731m-6.295.871C19.924,53.736,13.64,48.2,7.281,45.385,9.869,49.307,20.063,55.891,26.261,57.6m-4.829-.052c-4.8-1.154-9.456-7.637-14.274-7.746C9.8,52.263,16.068,59.9,21.432,57.549m-11.13.819Q8.4,57.082,6.51,55.8c-.481.3-.979.619-1.471.927,1.754.437,3.471,2.652,5.263,1.641m1.508-2.194c-2.257-.532-2.23-2.295-3.824-1.308,1.273.476,2.5,2.736,3.824,1.308" transform="translate(-0.002 0)" fill="#fff" fill-rule="evenodd"/>
      </g>
    </g>
    <g id="Group_195" data-name="Group 195" transform="matrix(0.259, 0.966, -0.966, 0.259, 803.924, 539.371)">
      <g id="Group_133" data-name="Group 133" clip-path="url(#clip-path-2)">
        <path id="Path_2235" data-name="Path 2235" d="M23.886,71.393c.466,2.005-1.485,1.055-1.765,2.157-3.585,18.136-8.823,39.758-7.048,60.878C10.215,136,4.935,134.534.09,133.352c-.746-24.058,3.253-47.88,8.374-67.882,4.033-.063,10.647,3.576,15.422,5.923m-7.49,16.7c.546-6.754-3-12.247-4.848-17.777C13.026,77.6,14.034,82.179,16.4,88.094m-.884,7c.328-9.051-4.058-16.966-6.171-23.159a86.41,86.41,0,0,0,6.171,23.159m2.645-12.926c1.129-3.858-2.286-5.944-3.522-8.616,1.133,2.921,1.7,6.535,3.522,8.616M14.635,101.56c-.252-8.684-4.7-16.388-6.613-24.784.159,8.726,4.2,17.055,6.613,24.784m-.884,8.625c-.559-9.194-3.139-15.919-5.729-22.627-.093.646-.49.329-.881,0,2.493,7.181,3.688,15.957,6.61,22.627M7.141,94.021c-.425-1.638-.521-3.677-1.765-4.306.515,1.52.611,3.563,1.765,4.306m5.729,28.014a27.171,27.171,0,0,1,.439-6.463c-1.2-.051-.887.9-1.761,0C9.331,108.581,8.291,100.159,4.5,95.093c2.4,9.443,5.926,19.208,8.374,26.942M4.5,104.794a.665.665,0,0,1,.881-.536,11.071,11.071,0,0,0-1.323-3.234c-.6.726-.839,3.761.442,3.77m7.49,22.631c-.68-4.935-4.234-15.636-7.932-20.474a.672.672,0,0,1-.881.54v2.153c3.716,2.9,6.14,11.829,8.813,17.781m-2.2-1.081C9.134,124.251,8,119.92,6.7,120.418c1.153,1.828,1.278,4.905,3.087,5.927M5.819,128.5c-1.388-1.718-1.7-4.745-3.084-6.463.318,2.672,1.9,6.636,3.084,6.463m-1.765,3.238c.169-1.828-.763-2.3-1.319-3.238-.021,1.642-.259,3.55,1.319,3.238" transform="translate(0 210.911)" fill="#fff" fill-rule="evenodd"/>
        <path id="Path_2236" data-name="Path 2236" d="M16.146,89.088c1.813,3.517,1.16,8.392,1.323,12.39.718,17.65,5.132,34.384,9.693,47.416-2.082,6.071-9.576,5.53-14.542,8.076C6.719,136.732,1.411,112.412.282,89.628a.662.662,0,0,0,.881-.54c3.7-.093,8.968.308,14.984,0M6.011,98.249c-.932-.473-1.305-1.634-2.645-1.617.083,1.566,2.328,3.576,2.645,1.617m-.442,1.081c2.994,7.295,9.821,10.288,11.019,18.317.76-9.515-6.948-14.851-11.019-18.317m7.494-4.31c-.138-1.807-1.475-2.149-2.645-2.693a3.811,3.811,0,0,0,2.645,2.693m1.319,9.7C12.092,99.431,8.024,93.453,2.924,93.4c4.624.819,6.5,9.161,11.458,11.314m-2.645-7c.843.232,1.109,1.161,2.207,1.076.138-1.68-2.041-2.879-2.207-1.076m2.207,16.7c-1.958-5.323-7.121-6.738-8.374-12.93H4.246c1.678,6.214,5.525,9.769,9.7,12.93M15.7,125.722c-3.681-1.874-6.644-10.056-9.693-9.156,4.04,4.935,8.2,9.726,13.219,13.471-2.455-9.57-7.922-15.459-13.661-21.015,1.509,7.514,9.386,10.051,10.135,16.7m4.406,10.241c.1-1.735-.78-2.284-.439-4.314-5.156.287-8.177-9.325-12.781-9.7,4.624,4.407,8.533,9.676,13.219,14.011m-5.729-1.613c2.376,2.14,4.911,5.868,6.61,5.382-1.582-2.685-4.106-4.378-6.168-6.467-2.165-2.187-4.178-4.635-6.61-6.459.083,3.719,3.923,5.518,6.168,7.544m8.374,11.85c-3.771-5.809-8.889-9.967-14.1-14.007,3.377,6.286,9.593,9.1,14.1,14.007m-1.765.54c-3.66-2.347-6.2-6.071-10.132-8.084,2.124,3.867,6.945,7.3,10.132,8.084m.884,3.229c-3.243-1.786-5.947-4.226-9.255-5.927,2.044,2.9,6.485,5.707,9.255,5.927m3.084-.545c.2-1.68-.939-1.714-2.2-1.613-.2,1.684.943,1.727,2.2,1.613m-6.61,1.617a11.123,11.123,0,0,0-4.848-2.689c-.825,4.5,5.228,2.643,4.848,2.689" transform="translate(0.692 286.951)" fill="#fff" fill-rule="evenodd"/>
        <path id="Path_2237" data-name="Path 2237" d="M98.438,2.155c-1.095,5.813,3.225,9.232,4.406,14.011-2.435,4.441-7.38,5.458-11.016,7.54C80.609,30.135,69.51,38.342,58.335,45.257c-1.751-6.3-6.951-8.384-6.613-17.241A349.46,349.46,0,0,1,94.916,0c1.844-.1,1.361,2.643,3.522,2.153M87.422,17.243a52.418,52.418,0,0,1-2.645,5.927c3.9.27,3.08-5.218,4.406-8.084-.518-.084-1.25.093-1.319-.54,1.388-2.972,4.631-6.535,4.406-9.7-2.573,2.237-6.24,10.571-4.848,12.394m4.848-6.463c1.392-.473,2.742-3.808,2.2-4.851-.767,1.575-1.388,3.335-2.2,4.851m-6.613,1.613c.487-1.921,1.875-2.736,2.207-4.846H86.542c.463,2.212-2.075,3.529-.884,4.846m4.848,7.544c1.292.139,1.354-1.22,2.645-1.076-.663-2.529,1.475-5.5-.881-5.387-.224,2.592-1.993,3.314-1.765,6.463M79.932,26.4c3.284-1.376,4.113-8.612,4.845-11.318C83.2,18.961,80.2,22.566,79.932,26.4M94.916,18.86c2.265-.287,3.25-2.326,1.319-3.774-.114,1.655-.953,2.423-1.319,3.774M70.235,33.943c3.961-3.238,5.964-11.74,7.052-16.7a157.8,157.8,0,0,0-7.052,16.7m4.406-4.31c3.419-.2,4.859-8.337,4.406-9.7-1.468,3.234-2.991,6.4-4.406,9.7m-8.813,7.544c2.39-.836,3.236-4.981,4.406-8.084,1.16-3.073,3.339-6.784,2.642-8.62-2.486,5.4-4.772,11.052-7.048,16.7M64.5,26.94a35.133,35.133,0,0,0,2.649-5.387c-2.093-.025-3.232,3.93-2.649,5.387m-6.61,11.314c1.917-1.8,4.2-8.257,3.084-10.237-.894,3.576-2.148,6.712-3.084,10.237m1.323,3.234c1.292.139,1.354-1.22,2.645-1.076-1.4-3.964,3.322-7.231,2.2-10.777a39.151,39.151,0,0,0-4.848,11.854M64.064,36.1c1.205-1.233,3.039-4.521,2.2-6.463a47.592,47.592,0,0,0-2.2,6.463" transform="translate(126.851 -0.002)" fill="#fff" fill-rule="evenodd"/>
        <path id="Path_2238" data-name="Path 2238" d="M84.572,25.518c-3.736,5.7-9.117,9.612-14.1,14.011C65.551,43.869,59.923,47.4,55.927,53c-.922-.228-1.167.371-1.761.54-3.585,3.88-7.784,7.012-11.458,10.773-3.429-5.146-7.421-9.6-10.139-15.62C45.1,33.839,59.819,21.655,75.759,10.975c3.277,4.437,4.469,11.419,8.813,14.543M68.266,23.905c1.758,3.829-2.915,8.954-3.522,13.467,4.541-1.266,3.308-9.6,5.729-13.467-.518-.084-1.25.089-1.323-.54.618-2.292,1.951-3.715,2.642-5.927-3.232-.359-2.7,3.888-3.526,6.467m4.41-1.076c.073-1.385,1.868-3.411.881-4.31-.432.946-2.017,3.234-.881,4.31m-6.61,1.076c-.39-1.777,2.155-2.693.881-3.774-.815.3-2.2,2.643-.881,3.774m7.49,7.544c2.8.646,1.571-3.728.881-4.851-.694,1.123-.3,3.576-.881,4.851M57.692,32.526c-.055-.405,1.412-4.112.881-4.851-.66.722-2.7,4.585-.881,4.851m6.61-4.31c.242.781-.515,2.782.442,2.693.218-.692,1.112-3.221.439-3.234a.667.667,0,0,1-.881.54M56.808,45.456c2.424-3.01,4.617-11.9,3.968-15.088-1.088,4.96-3.947,10.613-3.968,15.088m-3.964-9.7a5.889,5.889,0,0,1,2.2-3.77c-1.692-.249-3.118,2.613-2.2,3.77m7.932,5.382c2.638-.73,3.35-6.67,3.084-9.152a18.434,18.434,0,0,0-3.084,9.152m-9.255,8.625C53.1,49.9,53.133,48.15,54.6,48.15c-.428-6.1,3.809-9.351,2.645-14.547-2.5,4.665-3.847,10.74-5.729,16.164m-7.932,3.77c-.5,2.128-1.029,4.88-.442,6.463,3.989-5.509,5.38-16.565,6.61-23.7H48.437c-1.392,5.336-3.529,11.618-4.848,17.241m3.522,2.157c2.6-.616,2.8-4.813,3.529-7.544.78-2.934,1.73-6.277,2.2-9.161-.1-.418-.014-1.06-.442-1.076-1.716,5.986-3.947,11.331-5.29,17.781m-4.845-1.617c.159-5.247,4.258-11.25,2.645-15.088-.963,4.576-3.232,10.414-2.645,15.088" transform="translate(79.901 35.356)" fill="#fff" fill-rule="evenodd"/>
        <path id="Path_2239" data-name="Path 2239" d="M63.634,39.85c-.345,3.352-3.163,3.677-4.848,5.387C46.423,57.745,36.536,73.82,27.056,89.951A60.3,60.3,0,0,1,15.595,79.177c.877-7.371,4.779-11.043,8.374-15.083,7.494-15.265,18.368-26.4,28.207-38.8,2.189-.342,2.476,1.642,4.406,1.617,1.378,5.5,5.574,7.552,7.052,12.935M52.176,44.7c1.216-2.014,2.666-9.186,1.319-10.773-.763,3.191-.335,7.848-1.319,10.773m-3.968-3.77c-1.015-.2-.421-2.36-1.765-2.157-.9,6.083-2.915,13.673-2.2,19.938,1.74-3.981.47-14.509,3.964-14.552-.394,3.3-1.509,5.7-1.323,9.7,2.428-2.959,2.431-11.748,2.207-16.16-.87.376.107,3.006-.884,3.234m8.813,2.153c1.468.663,1.077-3.639.442-3.77-.608.692-.439,2.343-.442,3.77M41.156,54.393c.076-.8-.159-1.988.442-2.153-.442,4.61-2.031,7.379-.881,11.854,1.772-6.028,4.14-19.1,2.2-21.555-1.074,3-2.687,8.2-1.761,11.854m-3.526-7c2.165,5.028-1.92,14.5,0,21.01.231-6.113,3.1-17.908,1.323-23.163-.131,1.1-1.191,1.055-1.323,2.153m12.339,3.77c1.405.6,1.405-4.9,0-4.31.155,1.942.677,2.6,0,4.31M34.547,63.013c-.477,2.309-2.224,7.5-.442,10.773,2.158-3.517.774-11.17,2.2-16.7-3.553-.329.86-5.53-.881-7-1.82,2.774-1.972,9.422-.881,12.926m-5.29-2.693c3.26.507.96,10.148,0,12.39,1.06,1.224.352,4.6,1.765,5.387,1.16-4.593,1.45-15.628.881-22.087-.711,1.642-2.214,2.326-2.645,4.31M24.85,74.331c-.242-.785.515-2.786-.439-2.7-.846,4.466-.359,7.506-.884,11.854,1.357-.4.85,1.478,2.2,1.076A125.062,125.062,0,0,1,28.376,61.4c-4.147,1.735-.936,9.211-3.526,12.935m-1.761,0c-.566-2.077,1.775-5.306-.442-5.931.28,1.815-.57,5.007.442,5.931m4.848,9.7a46.888,46.888,0,0,0,.439-14.552c-.1,5.454-1.323,10.718-.439,14.552M22.208,80.79c-1.564-1.676.245-7.48-2.207-8.08,0,3.251.653,8.527,2.207,8.08" transform="translate(38.259 81.371)" fill="#fff" fill-rule="evenodd"/>
        <path id="Path_2240" data-name="Path 2240" d="M40.193,53.6C32.14,73.215,23.949,90.215,18.6,112.319c-6.047-1.224-11.665-2.972-14.1-8.616C11.71,82.718,16.87,59.212,28.732,43.9c4.02,2.993,8.429,5.5,11.461,9.7M29.612,72.455c1.285-5.416-2.393-11.951-2.2-19.394-.563-.03-.611-.692-1.323-.54.746,7.172,1.347,14.522,3.526,19.934m2.2-5.923c-1.05-4.1-.891-9.684-2.642-12.935.653,4.593.428,10.254,2.642,12.935M26.086,78.918c-1.385.228-.963-4.517-2.2-2.689,1.357,1.756.307,6.45,1.323,8.62,4.223-7.772,2.037-18.034-.881-27.478.321,8.181,1.734,15.708,1.761,21.547m7.936-17.241c.235-1.9-.373-2.774-1.323-3.229-.017,1.638-.256,3.546,1.323,3.229m-9.7,12.935a30.064,30.064,0,0,0-1.761-10.777c.266,4.255.656,9.059,1.761,10.777m-.881,15.62c1.071-7.079-.881-17.794-3.087-24.24-.7,6.7,1.768,17.971,3.087,24.24m-5.29-11.85c-.3-3.132.262-4,.884-4.846-.383-.815-.66.144-1.765-.54.062,2.077-.345,4.728.881,5.387m3.087,17.236c2.02-5.517-1.153-12.567-1.765-18.317-.673,5.779.418,13.3,1.765,18.317m-1.765,5.931c-.47-2.014,1.095-1.537.881-3.234-2.49-4.137-1.841-12.107-3.964-16.7a62.7,62.7,0,0,0,3.084,19.938m-8.816-9.7c2.521,4.639,2.041,15.822,6.613,16.16-2.6-6.311-3.626-13-5.729-18.857-.449.709-.432,1.988-.884,2.7m7.055,12.386C16.524,99.95,16.7,91.119,14.19,90.232c1.716,3.652,1.8,12.171,3.526,14.007m-4.848,2.7c-.957-4.04-1.485-8.6-3.526-11.318-.653,4.091.7,9.752,3.526,11.318" transform="translate(11.023 141.427)" fill="#fff" fill-rule="evenodd"/>
        <path id="Path_2241" data-name="Path 2241" d="M6.535,118.523c3.457.139,9.617-8.992,13.223-8.084,2.884.73,6.233,14.121,7.929,17.777,5.508,11.888,11.645,21.559,18.952,32.328,1.343,1.984,4.434,5.876,3.968,8.62C50.354,170.65,48,171.1,46.2,173.478c-1.295,1.705-5.522,5.323-7.932,4.3-1.923-.811-5.442-8.076-7.494-11.318-9.445-14.893-19.09-29.9-24.239-47.939m11.016,5.927c1.844-1.338,2.638,1.8,4.406,0a46.181,46.181,0,0,0-11.016-5.387c.822,3.487,5.677,2.035,6.61,5.387m-4.845-1.081a96.448,96.448,0,0,0,12.339,7.012c-2.417-3.728-10.4-6.277-12.339-7.012m14.1,10.773a5.866,5.866,0,0,0-1.319-3.229c-4.993.532-9.227-4.53-14.1-5.931,3.429,5.539,10,7.514,15.422,9.161M21.077,136.3a28.416,28.416,0,0,0,9.7,3.229,11.1,11.1,0,0,1-2.2-3.77c-4.855,2.208-9.918-3.8-14.545-5.378.791,2.579,4.5,4.6,7.052,5.919M20.2,137.38c3.564,2.955-.825-2.183-2.2-.54,1.039.789.818,1.136,2.2.54m1.761,2.149c4.565.359,7.321,5.783,11.458,4.855-1.109-.984-1.25-3.137-2.642-3.774.083,1.178-.363,1.714-1.323,1.617-2.127-.878-5.905-4.656-7.494-2.7m1.765,4.314c1.589.19,1.671.785,3.084,1.617-.055-.03.1-1.275.442-1.076,1.4.8,1.823,2.972,3.968,4.31,1.292.8,3.809.671,5.287,2.149-3.612-6.894-13.948-8.447-19.394-11.314,2.3,1.621,4.12,4.01,6.613,4.314m.442,3.234c-.9-.718-2.745-3.078-3.968-1.617,1.323.207,3.3,2.4,3.968,1.617m14.98,8.08c-2.345-3.238-6.751-3.956-10.132-5.927,2.707,2.436,6.844,5.986,10.132,5.927m-6.61,1.085c.663.253,1.571-.646,1.765-.549,3.256,1.655,7.079,3.487,9.255,7.008-1.754.346-1.772-1.427-3.526-1.081,1.115,1.461,3.067,3.1,4.848,2.157-.321,2.778,1.5,3.647,3.526,4.842-1.723-3.816-4.5-6.353-6.171-10.233-6.44.089-12.28-7.92-18.51-8.084,3.194,1.254,5.643,4.694,8.813,5.94m7.052,4.838c-4.431-2.482-9.3-4.428-13.661-7,3.2,3.635,9.614,6.2,13.661,7m-10.135,0c5.135.553,8.992,5.53,14.1,4.31-5.183-1.743-9.39-4.686-14.542-6.467-.1,1.017.494,1.195.439,2.157m3.526,5.382c1.095.084,2.138.114,2.2-1.072-.774.152-2.2-1.516-2.645,0,.345.122.515.456.442,1.072m4.848,3.774c.048,1.921,1.457,2.174,3.084,2.157-.38-1.473-2.29-2.858-3.084-2.157" transform="translate(16.032 355.573)" fill="#fff" fill-rule="evenodd"/>
        <path id="Path_2242" data-name="Path 2242" d="M71.589,175.839C68.9,181.166,66.8,187.224,61.454,189.31c-8.906-9.08-21.234-20.926-31.29-32.864-2.963-3.517-8.592-9.266-8.813-12.931-.411-6.788,7-7.725,8.813-13.471h.881c4.772,3.048,8.63,9.735,13.223,15.088,2.808,3.272,5.846,6.729,8.813,10.233,5.712,6.738,12.4,13.462,18.51,20.474M30.6,141.358c2.732-.625,5.38,1.668,7.494,0-1.564-.794-5.95-.962-7.494,0M26.2,143.515c-3.774-1.807-2.942,1.832,0,0m14.545,1.617c-2.293-1.874-8.284-2.085-11.019-1.617,2.179,1.71,8.581,3.782,11.019,1.617m3.526,4.846c-4.665-2.2-12.584-3.293-18.071-2.7,5.453,2.44,12.149,1.942,18.071,2.7m4.406,3.238c-4.714-2.622-12.625-1.414-19.39-2.7a29.465,29.465,0,0,0,19.39,2.7m-5.729,3.229c2.286-.8,5.532,2.3,6.171,0-.832-.979-6.779-.781-6.171,0m11.9,3.774c-2.535-1-9.055-.937-12.339-.545,3.785.346,10.843,2.4,12.339.545m3.522,4.31c-3.9-1.722-12.37-2.925-18.068-2.153,3.457,1.6,14.045,3.175,18.068,2.153m3.529,3.766c-3.861-1.57-10.484-2.622-14.987-1.617,3.768-.008,10.975,3.9,14.987,1.617m-8.374,3.238c3.8-.152,8.668,1.245,11.458.536-2.417-1.245-9.02-2.883-11.458-.536m14.542,4.846c-4.51-3.635-12.453-2.166-18.51-2.7,3.177,4.386,11.983.587,18.51,2.7m-11.016,2.149c3.7-1.013,7.891,2.807,10.135,0-2.1-.929-9.493-.836-10.135,0m-.442,3.234c2.6.359,7.6,2.166,8.813-.54-2.877.7-7.1-2.275-8.813.54m3.968,3.77c1.081.439,2.542.924,2.642-1.077-1.167.013-2.593-.3-2.642,1.077" transform="translate(52.339 418.937)" fill="#fff" fill-rule="evenodd"/>
        <path id="Path_2243" data-name="Path 2243" d="M92.913,172.46c-3.412,4.618-4.966,11.521-7.048,17.773-2.348.35-3.142-1.191-4.41-2.153-15.246-7.037-30.468-14.117-41.868-25.861a43.588,43.588,0,0,1,9.7-17.245A375.131,375.131,0,0,0,92.913,172.46M48.4,155.751c2.338-.73,5.063-1,6.168-3.225-2.134-2.5-4.755,1.49-6.168,3.225m5.287,1.076a5.074,5.074,0,0,0,4.41-2.145,10.573,10.573,0,0,0-4.41,2.145m-4.4,3.774c3.764.414,9.265-1.553,12.777-3.234-4-.591-8.878,1.955-12.777,3.234m-2.207,4.851c6.33-1.786,14.034-1.879,18.952-5.391-5.346-.832-15.053,2.486-18.952,5.391m20.713-3.234c-5,2.318-11.116,3.288-17.187,4.31,4.617,4.373,13.727-1.967,19.832-2.693.041-1.672-1.33-1.6-2.645-1.617M55.013,171.38c7.093-.827,14.21-2.533,20.274-5.927-6.392.4-15.029,2.36-20.274,5.927m21.6-3.234c.784.127,2.207-.549,1.761,1.081-2.2,2.883-7.445,2.026-10.139,4.306,5.373.27,9.731-3.546,14.1-2.7-2.3,4.555-10.325,2.1-13.219,5.935,5.211-.106,12.093-2.82,16.748-5.391-3.477-.063-6.516-5.8-9.255-3.234m-18.071,5.387c4.206-.65,11.334-2.28,15.426-4.846-4.883,1.933-11.24,2.06-15.426,4.846M84.1,176.77c1.789-.5,2.124-1.161,3.964-.54-.425-1.009,1.319-1.807,0-2.157-.632,1.406-4.479,1.676-3.964,2.7m-4.852,5.378c2.3-.777,4.607-1.545,6.171-3.229-2.186.92-4.772,1.351-6.171,3.229m2.2,2.7a4.131,4.131,0,0,0,3.968-2.7c-1.744.384-3.433.836-3.968,2.7" transform="translate(97.119 467.034)" fill="#fff" fill-rule="evenodd"/>
      </g>
    </g>
  </g>
</svg>

