<svg fill="currentColor" xmlns="http://www.w3.org/2000/svg" viewBox="0 0 39 45" class="animate maskUp" style="translate: none; rotate: none; scale: none; transform: translate(0px, 0px); opacity: 1;"><path fill-rule="evenodd" clip-rule="evenodd" d="M28.1185 0V0.0378804C28.1208 0.722884 28.3203 10.6263 38.6619 11.2441C38.6619 20.4573 38.6665 11.2441 38.6665 18.896C37.8896 18.9423 31.8595 18.5044 28.1069 15.1408L28.0953 30.0372C28.1881 36.7826 24.4518 43.3973 17.4568 44.7305C15.497 45.1035 13.7324 45.1455 10.7702 44.4951C-6.29474 39.3651 -0.62417 13.9291 16.5106 16.6512C16.5106 24.8629 16.5153 16.6489 16.5153 24.8629C9.43679 23.8163 7.06883 29.7342 8.94976 33.9715C10.6617 37.8291 17.7096 38.6658 20.168 33.2235C20.4464 32.1583 20.5856 30.9439 20.5856 29.5804V0H28.1185Z" fill="currentColor"></path></svg>