<?xml version="1.0" encoding="utf-8"?>
<!-- Generator: Adobe Illustrator 27.0.0, SVG Export Plug-In . SVG Version: 6.00 Build 0)  -->
<svg version="1.1" id="Layer_1" xmlns="http://www.w3.org/2000/svg" xmlns:xlink="http://www.w3.org/1999/xlink" x="0px" y="0px"
	 viewBox="0 0 15.1 12.3" style="enable-background:new 0 0 15.1 12.3;" xml:space="preserve">
<path d="M14.9,1.5c-0.6,0.2-1.2,0.4-1.8,0.5c0.6-0.4,1.1-1,1.4-1.7c-0.6,0.4-1.3,0.6-2,0.8c-0.6-0.6-1.4-1-2.3-1
	C8.5,0,7.1,1.4,7.1,3.1c0,0.2,0,0.5,0.1,0.7C4.6,3.7,2.4,2.4,0.8,0.6C0.6,1,0.4,1.6,0.4,2.1c0,1.1,0.5,2,1.4,2.6
	c-0.5,0-1-0.2-1.4-0.4v0c0,1.5,1.1,2.8,2.5,3C2.6,7.5,2.3,7.5,2,7.5c-0.2,0-0.4,0-0.6-0.1C1.9,8.7,3,9.6,4.4,9.6
	C3.3,10.5,2,11,0.5,11c-0.3,0-0.5,0-0.7,0c1.4,0.9,3,1.4,4.8,1.4c5.7,0,8.8-4.7,8.8-8.8c0-0.1,0-0.3,0-0.4C14,2.6,14.5,2.1,14.9,1.5
	L14.9,1.5z"/>
</svg>
